<?xml version="1.0" encoding="utf-8"?>
<!-- Generator: Adobe Illustrator 22.0.1, SVG Export Plug-In . SVG Version: 6.00 Build 0)  -->
<svg version="1.1" id="Layer_1" xmlns="http://www.w3.org/2000/svg" xmlns:xlink="http://www.w3.org/1999/xlink" x="0px" y="0px"
	 viewBox="0 0 66.9 57.7" style="enable-background:new 0 0 66.9 57.7;" xml:space="preserve">
<style type="text/css">
	.st0{fill:#157FB8;}
	.st1{fill:#322153;}
</style>
<path id="Path_339" class="st0" d="M63.5,5.8H21.9c-1.3,0-2.3,1-2.3,2.3v11.5H45c1.3,0,2.3,1,2.3,2.3v16.2h4.6l9.2,9.2v-9.2h2.3
	c1.3,0,2.3-1,2.3-2.3V8.1C65.8,6.8,64.7,5.8,63.5,5.8z"/>
<g id="Group_153" transform="translate(0 32)">
	<path id="Path_340" class="st1" d="M3.5,16.5h1.2v8.1c0,0.5,0.2,0.9,0.7,1c0.1,0.1,0.3,0.1,0.5,0.1c0.3,0,0.6-0.1,0.8-0.3l8.9-8.9
		H45c1.9,0,3.4-1.5,3.5-3.3c0,0,0-0.1,0-0.1V2.6h3l8.9,8.9c0.2,0.2,0.5,0.4,0.8,0.3c0.2,0,0.3,0,0.5-0.1c0.4-0.2,0.7-0.6,0.7-1V2.6
		h1.2c1.9,0,3.4-1.5,3.5-3.3c0,0,0-0.1,0-0.1v-27.7c0-1.9-1.5-3.4-3.3-3.5c0,0-0.1,0-0.1,0H21.9c-1.9,0-3.4,1.5-3.5,3.3
		c0,0,0,0.1,0,0.1v10.4h-15c-1.9,0-3.4,1.5-3.5,3.3c0,0,0,0.1,0,0.1V13c0,1.9,1.5,3.4,3.3,3.5C3.4,16.5,3.4,16.5,3.5,16.5z
		 M20.8-28.5c0-0.6,0.4-1.1,1-1.2c0,0,0.1,0,0.1,0h41.5c0.6,0,1.1,0.4,1.2,1c0,0,0,0.1,0,0.1v27.7c0,0.6-0.4,1.1-1,1.2
		c0,0-0.1,0-0.1,0h-2.3c-0.6,0-1.1,0.4-1.2,1c0,0,0,0.1,0,0.1v6.5l-7.3-7.3c-0.2-0.2-0.5-0.4-0.8-0.3h-3.5v-15
		c0-1.9-1.5-3.4-3.3-3.5c0,0-0.1,0-0.1,0H20.8L20.8-28.5z M2.3-14.7c0-0.6,0.4-1.1,1-1.2c0,0,0.1,0,0.1,0H45c0.6,0,1.1,0.4,1.2,1
		c0,0,0,0.1,0,0.1V13c0,0.6-0.4,1.1-1,1.2c0,0-0.1,0-0.1,0H15c-0.3,0-0.6,0.1-0.8,0.3l-7.3,7.3v-6.5c0-0.6-0.4-1.1-1-1.2
		c0,0-0.1,0-0.1,0H3.5c-0.6,0-1.1-0.4-1.2-1c0,0,0-0.1,0-0.1V-14.7z"/>
	<path id="Path_341" class="st1" d="M10.4-6.6h18.5c0.6,0,1.2-0.5,1.2-1.2c0-0.6-0.5-1.2-1.2-1.2c0,0,0,0,0,0H10.4
		c-0.6,0-1.2,0.5-1.2,1.2C9.2-7.1,9.7-6.6,10.4-6.6C10.4-6.6,10.4-6.6,10.4-6.6z"/>
	<path id="Path_342" class="st1" d="M33.5-6.6h4.6c0.6,0,1.2-0.5,1.2-1.2c0-0.6-0.5-1.2-1.2-1.2c0,0,0,0,0,0h-4.6
		c-0.6,0-1.2,0.5-1.2,1.2C32.3-7.1,32.8-6.6,33.5-6.6C33.5-6.6,33.5-6.6,33.5-6.6z"/>
	<path id="Path_343" class="st1" d="M10.4-2h9.2c0.6,0,1.2-0.5,1.2-1.2c0-0.6-0.5-1.2-1.2-1.2c0,0,0,0,0,0h-9.2
		c-0.6,0-1.2,0.5-1.2,1.2C9.2-2.5,9.7-2,10.4-2C10.4-2,10.4-2,10.4-2z"/>
	<path id="Path_344" class="st1" d="M38.1-4.3H24.2c-0.6,0-1.2,0.5-1.2,1.2c0,0.6,0.5,1.2,1.2,1.2c0,0,0,0,0,0h13.8
		c0.6,0,1.2-0.5,1.2-1.2C39.2-3.8,38.7-4.3,38.1-4.3C38.1-4.3,38.1-4.3,38.1-4.3z"/>
	<path id="Path_345" class="st1" d="M10.4,2.6h27.7c0.6,0,1.2-0.5,1.2-1.2c0-0.6-0.5-1.2-1.2-1.2l0,0H10.4c-0.6,0-1.2,0.5-1.2,1.2
		C9.2,2.1,9.7,2.6,10.4,2.6z"/>
	<path id="Path_346" class="st1" d="M10.4,7.2H15c0.6,0,1.2-0.5,1.2-1.2c0-0.6-0.5-1.2-1.2-1.2h-4.6c-0.6,0-1.2,0.5-1.2,1.2
		C9.2,6.7,9.7,7.2,10.4,7.2z"/>
	<path id="Path_347" class="st1" d="M38.1,4.9H19.6c-0.6,0-1.2,0.5-1.2,1.2c0,0.6,0.5,1.2,1.2,1.2h18.5c0.6,0,1.2-0.5,1.2-1.2
		C39.2,5.4,38.7,4.9,38.1,4.9z"/>
	<path id="Path_348" class="st1" d="M48.5-21.6c0-0.6-0.4-1.1-1-1.2c0,0-0.1,0-0.1,0H28.8c-0.6,0-1.2,0.5-1.2,1.2s0.5,1.2,1.2,1.2
		c0,0,0,0,0,0h18.5c0.6,0,1.1-0.4,1.2-1C48.5-21.5,48.5-21.6,48.5-21.6z"/>
	<path id="Path_349" class="st1" d="M51.9-20.5h4.6c0.6,0,1.2-0.5,1.2-1.2c0-0.6-0.5-1.2-1.2-1.2h-4.6c-0.6,0-1.2,0.5-1.2,1.2
		S51.3-20.5,51.9-20.5C51.9-20.5,51.9-20.5,51.9-20.5z"/>
	<path id="Path_350" class="st1" d="M51.9-15.8h4.6c0.6,0,1.2-0.5,1.2-1.2c0-0.6-0.5-1.2-1.2-1.2h-4.6c-0.6,0-1.2,0.5-1.2,1.2
		C50.8-16.4,51.3-15.8,51.9-15.8C51.9-15.8,51.9-15.8,51.9-15.8z"/>
	<path id="Path_351" class="st1" d="M51.9-11.2h4.6c0.6,0,1.2-0.5,1.2-1.2c0-0.6-0.5-1.2-1.2-1.2h-4.6c-0.6,0-1.2,0.5-1.2,1.2
		C50.8-11.7,51.3-11.2,51.9-11.2C51.9-11.2,51.9-11.2,51.9-11.2z"/>
	<path id="Path_352" class="st1" d="M51.9-6.6h4.6c0.6,0,1.2-0.5,1.2-1.2c0-0.6-0.5-1.2-1.2-1.2h-4.6c-0.6,0-1.2,0.5-1.2,1.2
		C50.8-7.1,51.3-6.6,51.9-6.6C51.9-6.6,51.9-6.6,51.9-6.6z"/>
</g>
</svg>
