<?xml version="1.0" encoding="utf-8"?>
<!-- Generator: Adobe Illustrator 22.0.1, SVG Export Plug-In . SVG Version: 6.00 Build 0)  -->
<svg version="1.1" id="Layer_1" xmlns="http://www.w3.org/2000/svg" xmlns:xlink="http://www.w3.org/1999/xlink" x="0px" y="0px"
	 viewBox="0 0 41.9 60.9" style="enable-background:new 0 0 41.9 60.9;" xml:space="preserve">
<style type="text/css">
	.st0{fill:#157FB8;}
	.st1{fill:#322153;}
</style>
<path id="Path_317" class="st0" d="M33,50.9c0-1.1-0.9-2-2-2h-6v-6c0-1.1-0.9-2-2-2h-4c-1.1,0-2,0.9-2,2v6h-6
	c-1.1-0.1-2,0.8-2.1,1.9c-0.1,1.1,0.8,2,1.9,2.1c0.1,0,0.1,0,0.2,0h4c-1.1-0.1-2,0.8-2.1,1.9c-0.1,1.1,0.8,2,1.9,2.1
	c0.1,0,0.1,0,0.2,0h2v4h8v-4h2c1.1,0.1,2-0.8,2.1-1.9c0.1-1.1-0.8-2-1.9-2.1c-0.1,0-0.1,0-0.2,0h4C32.1,52.9,33,52,33,50.9z"/>
<g id="Group_150" transform="translate(76)">
	<path id="Path_318" class="st1" d="M-38.1,33.4c2.7-3.6,4.1-7.9,4.1-12.4c0-11.6-9.4-21-21-21s-21,9.4-21,21
		c0,4.5,1.4,8.8,4.1,12.4c0,0.1,0,0.1,0.1,0.1l7,10.4H-65c-1.7-0.1-3.1,1.2-3.2,2.8c-0.1,1.7,1.2,3.1,2.8,3.2c0.1,0,0.2,0,0.3,0h1.2
		c-0.6,1.5,0.2,3.2,1.7,3.8c0.4,0.1,0.7,0.2,1.1,0.2h1v3c0,0.5,0.4,1,0.9,1c0,0,0.1,0,0.1,0h8c0.5,0,1-0.4,1-0.9c0,0,0-0.1,0-0.1v-3
		h1c1.6,0,3-1.2,3-2.9c0-0.4-0.1-0.8-0.2-1.1h1.2c1.7-0.1,2.9-1.5,2.8-3.2c-0.1-1.5-1.3-2.8-2.8-2.8h-0.1L-38.1,33.4L-38.1,33.4z
		 M-44,46.9c0,0.5-0.4,1-0.9,1c0,0-0.1,0-0.1,0h-4c-0.6,0-1,0.4-1,1s0.4,1,1,1s1,0.4,1,1s-0.4,1-1,1h-6c-0.6,0-1,0.4-1,1s0.4,1,1,1
		h3v2h-6v-3c0-0.5-0.4-1-0.9-1c0,0-0.1,0-0.1,0h-2c-0.6,0-1-0.4-1-1s0.4-1,1-1h6c0.6,0,1-0.4,1-1s-0.4-1-1-1h-10c-0.6,0-1-0.4-1-1
		s0.4-1,1-1h20c0.5,0,1,0.4,1,0.9C-44,46.9-44,46.9-44,46.9z M-53,38c0.5,0,1,0.4,1,0.9c0,0,0,0.1,0,0.1v5h-6v-5c0-0.5,0.4-1,0.9-1
		c0,0,0.1,0,0.1,0L-53,38z M-40,32.6l-7.5,11.4H-50v-5c0-1.6-1.3-3-2.9-3c0,0-0.1,0-0.1,0h-1V25.9c0-0.5,0.1-0.9,0.3-1.3l3.6-7.2
		c0.2-0.3,0.2-0.7,0-1c-0.2-0.2-0.6-0.4-0.9-0.4h-8c-0.6,0-1,0.4-1,1s0.4,1,1,1h6.4l-2.9,5.7c-0.3,0.7-0.5,1.4-0.5,2.2V36h-1
		c-1.6,0-3,1.3-3,2.9c0,0,0,0.1,0,0.1v5h-2.5L-70,32.6c0-0.1,0-0.1-0.1-0.2C-72.7,29.1-74,25.1-74,21c0-10.5,8.5-19,19-19
		s19,8.5,19,19c0,4.1-1.3,8.1-3.8,11.4L-40,32.6z"/>
	<path id="Path_319" class="st1" d="M-55,4c-9.4,0-17,7.6-17,16.9c0,0,0,0,0,0c0,0.6,0.4,1,1,1s1-0.4,1-1c0-8.3,6.7-15,14.9-15
		c0,0,0,0,0,0c0.6,0,1-0.4,1-1S-54.5,4-55,4z"/>
</g>
</svg>
