<?xml version="1.0" encoding="utf-8"?>
<!-- Generator: Adobe Illustrator 22.0.1, SVG Export Plug-In . SVG Version: 6.00 Build 0)  -->
<svg version="1.1" id="ebf8a77a-edff-4dc3-b5b4-de0e5991af45"
	 xmlns="http://www.w3.org/2000/svg" xmlns:xlink="http://www.w3.org/1999/xlink" x="0px" y="0px" viewBox="0 0 1085 822.8"
	 style="enable-background:new 0 0 1085 822.8;" xml:space="preserve">
<style type="text/css">
	.st0{fill:#4DB6AC;}
	.st1{fill:#444053;}
	.st2{fill:none;stroke:#444053;stroke-miterlimit:10;}
	.st3{fill:none;stroke:#444053;stroke-width:0.75;stroke-miterlimit:10;}
	.st4{opacity:0.1;fill:#45A2EF;enable-background:new    ;}
	.st5{fill:url(#SVGID_1_);}
	.st6{fill:#FFFFFF;}
	.st7{fill:#4F4D59;}
	.st8{fill:url(#SVGID_2_);}
	.st9{fill:#787C9C;}
	.st10{opacity:0.1;enable-background:new    ;}
	.st11{fill:#714B4F;}
	.st12{fill:#E6E6F0;}
	.st13{fill:#BA7855;}
	.st14{fill:#503F43;}
	.st15{opacity:4.000000e-02;fill:#5A5773;enable-background:new    ;}
	.st16{fill:#5A5773;}
	.st17{opacity:0.1;fill:#5FA6E0;enable-background:new    ;}
	.st18{opacity:0.2;fill:none;stroke:#5A5773;stroke-miterlimit:10;enable-background:new    ;}
	.st19{opacity:0.2;fill:none;stroke:#5A5773;stroke-miterlimit:10;stroke-dasharray:12;enable-background:new    ;}
	.st20{fill:#157FB8;}
	.st21{display:none;opacity:0.5;fill:#DF99CA;enable-background:new    ;}
	.st22{opacity:0.2;fill:#157FB8;enable-background:new    ;}
	.st23{opacity:0.5;fill:#157FB8;enable-background:new    ;}
	.st24{fill:#4291E5;}
	.st25{opacity:0.2;fill:#5A5773;enable-background:new    ;}
	.st26{fill:url(#SVGID_3_);}
	.st27{fill:#2D293D;}
	.st28{fill:#575988;}
	.st29{opacity:5.000000e-02;enable-background:new    ;}
	.st30{opacity:5.000000e-02;}
	.st31{fill:#FFCDD3;}
	.st32{fill:#DCE6F2;}
	.st33{fill:#656691;}
	.st34{opacity:0.1;}
	.st35{fill:#FFD037;}
	.st36{fill:#65617D;}
	.st37{fill:#9D9CB5;}
</style>
<title>setup analytics</title>
<path class="st0" d="M214.1,8.4c0,0-3.8,14.7,22.6,56.3s24.5,47.5,23,59.4s-1.4,18.4-16.7,33c0,0-45.9,15.1-52,24.4
	s10.1,43.5,10.1,43.5s15.6,41.5-40.5,57.4c0,0-43.9,0.1-56.1,9.7c0,0,4.7-16.8-9.9-41.6s5.5-48.9,5.5-48.9s16.2-8.9,26.6-9.6
	s13.6-5.4,6.9-17.3c0,0-9.6-5-22.9,5.7S87.6,198.8,76,197.9s-28.1-5.8-38.9-27.2S20.6,119,12.5,105.2S0,88.4,0,88.4
	s10.2,7.8,45.6-18.6s53.9-15.1,53.9-15.1s28.4,7.6,33,57.8c0,0,8.3,47.8,25.1,18.8c0,0-5.7-16.3-17.1-40.3s19.1-46.6,41.3-54.1
	S214.1,8.4,214.1,8.4z"/>
<path class="st1" d="M31,99l-0.1-0.2c7-2.9,39.3,14.6,65.1,29.8l-0.1,0.2C59.4,107.3,36.4,96.7,31,99z"/>
<path class="st1" d="M95.3,128.4l0.3-0.1c20.6,12.1,45.4,27.6,63.9,40.1c1.8,1.2,3.6,2.4,5.5,3.5l-0.3,0.5c-1.9-1.1-3.7-2.3-5.5-3.5
	C140.7,156.3,115.9,140.5,95.3,128.4z"/>
<path class="st1" d="M164.1,172l0.5-0.4c37.2,22.3,89.5,17,89.9,17l-5.8,6.6C248.3,195.2,201.6,194.4,164.1,172z"/>
<path class="st2" d="M200.2,42c0,0-12.2,33.9-2.9,57.8s-10,83.1-10,83.1s-6.4,24.9-16.7,31.1c0,0-14.9,18.5-23.6,20.6
	s-28.8,20.9-28.3,31.3"/>
<path class="st2" d="M216.6,44.4c0,0-8.6,17.4-21.4,17.2"/>
<path class="st2" d="M233.8,67c0,0-5.2,23.9-37.3,30.6"/>
<path class="st2" d="M247.2,102.7c0,0-15.1,24.2-47.7,21.3"/>
<path class="st2" d="M244.4,148.1c0,0-28.5,18.6-50,8.4"/>
<path class="st2" d="M180.1,44.4c0,0,7.4,15.7,15.7,11"/>
<path class="st2" d="M152.8,68.3c0,0,10,21.1,41.3,17.4"/>
<path class="st2" d="M149.8,100c0,0,27.5,16.7,49.8,12.2"/>
<path class="st2" d="M164.3,133.9c0,0,21.8,17.4,32,13.4"/>
<path class="st2" d="M159.2,146.8c0,0,5.9,18.2,0.1,21.7"/>
<path class="st2" d="M139.9,174.2c0,0,11.2-11.1,8.1-13.2"/>
<path class="st2" d="M119.3,81.6c0,0,9.8,46.7-2.9,59.3"/>
<path class="st2" d="M78.2,192.7c0,0,44.5-28.6,48.4-45.4"/>
<path class="st2" d="M52.4,172.5c0,0,41.8-19.5,53.2-38.2"/>
<path class="st3" d="M80.5,66.6c0,0,20.2,33.8,7.6,57.4"/>
<path class="st3" d="M38.8,141.9c0,0,31-12.6,37.3-24.6"/>
<path class="st3" d="M45.3,76.9c0,0,10.4,19.1,5.5,27.4"/>
<path class="st2" d="M152.7,190.1c0,0,28-3.8,31,3.6"/>
<path class="st2" d="M197.5,247.4c0,0-1.5-30.6-19-42.5"/>
<path class="st2" d="M120.7,202.4c0,0,29.4,3.5,39.8,22.6"/>
<path class="st2" d="M170,269.6c0,0,4.5-22.4-16.9-38.3"/>
<path class="st2" d="M99.6,229.5c0,0,24.4-1.2,37.4,10.3"/>
<path class="st2" d="M133.1,273.8c0,0-2.3-17.8-8.6-21.2"/>
<path class="st4" d="M390.9,733.6c57.3-0.2,112.2,14.8,164.6,31.5c52.5,16.7,104.5,35.5,160.6,43.3c36.1,5,77.2,4.4,105.8-14.4
	c27.4-18,35.7-47.8,39.9-75.3c3.2-20.7,4.8-42.4-5.7-61.3c-7.2-13.1-19.8-23.9-28.6-36.3c-30.6-43.5-11-99.2,20-143.9
	c14.6-21,31.6-41.1,42.6-63.2c11.1-22.1,15.8-47.2,5.2-69c-10.5-21.6-34.9-37.2-61.2-47.8c-53.3-21.6-115.7-26.1-176.4-27.7
	c-134.4-3.6-269.2,5-403.7,13.5c-49.8,3.2-99.7,6.4-148.6,15.2c-27.2,4.9-55.1,12.2-74.5,28.1c-24.6,20-30.1,52.7-12.8,76.2
	c29.1,39.2,107.3,46.4,128,88.9c11.5,23.5,0.9,50.4-14.3,73C99.1,613,43.4,656.6,41.7,710.8c-1.3,37.3,26.9,73.5,69.5,89.6
	c44.6,16.8,105.7,12.3,137.6-19.4C281.6,748.1,340.3,734,390.9,733.6z"/>
<linearGradient id="SVGID_1_" gradientUnits="userSpaceOnUse" x1="609.85" y1="129.79" x2="609.85" y2="668.19" gradientTransform="matrix(1 0 0 -1 0 803.89)">
	<stop  offset="0" style="stop-color:#808080;stop-opacity:0.25"/>
	<stop  offset="0.54" style="stop-color:#808080;stop-opacity:0.12"/>
	<stop  offset="1" style="stop-color:#808080;stop-opacity:0.1"/>
</linearGradient>
<path class="st5" d="M147.2,135.7h925.3c6.9,0,12.5,5.6,12.5,12.5v513.4c0,6.9-5.6,12.5-12.5,12.5H147.2c-6.9,0-12.5-5.6-12.5-12.5
	V148.2C134.7,141.3,140.3,135.7,147.2,135.7z"/>
<path class="st6" d="M148.7,143.3h922.4c6.9,0,12.5,5.6,12.5,12.5v504c0,6.9-5.6,12.5-12.5,12.5H148.7c-6.9,0-12.5-5.6-12.5-12.5
	v-504C136.2,148.9,141.8,143.3,148.7,143.3z"/>
<path class="st6" d="M148.7,143.3h922.4c6.9,0,12.5,5.6,12.5,12.5v504c0,6.9-5.6,12.5-12.5,12.5H148.7c-6.9,0-12.5-5.6-12.5-12.5
	v-504C136.2,148.9,141.8,143.3,148.7,143.3z"/>
<g>
	<path class="st7" d="M91.7,715.5l-8.3,23.2c0,0,22.8,17.5,37.6,13.9c2.2-0.6,4.5-0.9,6.8-1.1c3.1-0.2,8.4-2.5,5.1-5.3
		c-10.5-9.2-24.5-26.3-24.5-26.3L91.7,715.5z M230.2,713.3l-3.9,22.3c0,0,20.2-0.9,54.3,9.6c0,0,13.1-5.7,2.2-12.7
		c0,0-12.7,0.9-20.6-12.7c-7.9-13.6-12.7-11.8-12.7-11.8L230.2,713.3z"/>
	<g>
		
			<linearGradient id="SVGID_2_" gradientUnits="userSpaceOnUse" x1="305.2856" y1="222.3335" x2="305.2856" y2="-206.6522" gradientTransform="matrix(1 0 0 1 -114.15 536.3677)">
			<stop  offset="0" style="stop-color:#808080;stop-opacity:0.25"/>
			<stop  offset="0.54" style="stop-color:#808080;stop-opacity:0.12"/>
			<stop  offset="1" style="stop-color:#808080;stop-opacity:0.1"/>
		</linearGradient>
		<path class="st8" d="M285.4,737.8c0,0-13,0.9-21.1-13c-1.6-2.8-3.4-5.4-5.5-7.9c-2.6-4.3-3.9-9.1-3.9-14.1
			c0.5-10.3-10.3-66.9-10.3-66.9s1.4-21.5-9.4-35c-7.1-8.9-17.3-34.3-23.4-50.6c0.4,0.4,0.9,0.6,1.5,0.8l-0.2-1.4l0.2,0.1l-3.1-17.5
			c-4.6-5.3-8.5-11.2-11.6-17.6l0.7-0.2l9.5-2c0,0,15.5-22,16.4-32.8l1.3,0.1h1.8c19.7-0.4,42.9,2.2,42.9,2.2c0-0.1-0.1-0.3-0.2-0.8
			c-0.6-2.2-1.1-4.4-1.4-6.6l0.9-0.1l8.8-0.6c0,0,30.5-34.1,19.3-40.4s-22.9,28.3-22.9,28.3l-3.8,0.7l-1,0.2
			c0.1-0.1,0.2-0.3,0.3-0.4s-49.8-2.2-57.5-14.4c0,0-22-17.5-22.9-29.2c-0.5-6.2-4.4-9.5-7.9-11.2c-2.7-1.3-5.7-1.9-8.7-1.6
			l-10.3,0.7l0.7,1.3h-0.4c-0.6-1.5-1.2-3-1.6-4.6h0.2c-0.1-0.3-0.1-0.6-0.2-1c13-3.1,21.1-16.1,18-29.2c-0.1-0.2-0.1-0.5-0.2-0.7
			c1,0.1,2,0.1,3-0.1c3.8-0.8,6.5-4.6,6.6-8.5v-0.9c-0.1-3.9-1.9-7.6-5-10c-2.1-1.7-4.5-2.9-6.4-4.8c-2.2-2.3-3.4-5.3-5.2-8
			c-2.9-4.4-7.2-7.8-12.2-9.5c-3.7-1.3-8.3-1.4-11.1,1.3c-1.5,1.4-2.3,3.4-4,4.5c-2.4,1.7-5.6,1.2-8.5,1.5
			c-5.3,0.6-9.9,4.4-12.2,9.1c-1.4,3-2.1,6.3-2,9.6c0,2.3,0.2,4.6,0.8,6.8c0.6,2.2,1.4,4.3,2,6.5c1.3,4.6,1.6,9.4,3,13.9
			c1,3.3,2.9,6.3,5.6,8.5l-0.4,1.9c-0.3,0.1-7.3,1.6-12.1,12.1c-3.8,8.3-16.7,16.9-22.4,20.4c-2.1,1.3-3.7,3.4-4.2,5.9
			c-0.5,2.4-0.8,5-0.7,7.5c-0.1,5.4,1,12.9,5.4,22.4c9.9,21.6,17.1,31,17.1,31s0.6,6.6,0.6,13.6c0,5.2-0.4,10.3-1.5,12.9
			c-0.9,2.2-1.2,7.8-1.2,14.1c0,12.2,1.2,28.1,1.2,28.1s3.4,0.7,8.8,1.4l3.3,58.2c0.4,7-1.8,14-6.3,19.4c-2.3,2.9-5,5.4-8,7.6
			c-9.4,6.7-29.6,77.7-29.6,77.7s1,0.1,2.6,0.2L81.2,744c0,0,24.8,19,39.9,13.8c1.6-0.5,3.3-0.8,5-0.7c3,0,9.4-2.3,5.8-5.5
			c-6.4-5.6-14.2-14.2-19.3-20.1c0.5,0.2,1,0.5,1.4,0.8v-0.1l0.2,0.1c0,0,0.1-0.7,0.2-1.8l-0.2-0.1c0.5-4.7,1.9-16.4,4.8-17.8
			c3.6-1.8,30.1-54.3,30.1-54.3l26.5-68.2c0,0,21.1,36.4,39,42.6v15.2c0,0,9.9,44.9,13.5,49.8s0,24.7,0,24.7
			c0.7,0.8,1.5,1.5,2.4,2.1l-2.9,16.3c0,0,20.6-0.9,55.7,9.9C283.2,750.8,296.6,745,285.4,737.8L285.4,737.8z M202.8,503l-4.4,1.1
			l-0.9,0.2c-0.1-0.5-0.1-0.9-0.1-0.9c-1,0.4-2.1,0.7-3.2,0.8c-1.5-4.9-2.4-10-2.7-15.1c0,0-2.5-10.4-2.7-18.8
			c0-3.3,0.5-6.1,1.8-7.7l1.5,0.1l1,1l0.1,0.1l0.5,0.5l0.5,0.5l0.1,0.1l0.6,0.5l0.1,0.1l0.6,0.5h0.1l0.7,0.5l0.1,0.1l0.7,0.6h0.1
			l0.7,0.5l0.2,0.1l0.8,0.6l0.2,0.1l0.7,0.5l0.1,0.1l0.8,0.6l0.2,0.1l0.9,0.6h0.1l0.9,0.6l0.2,0.1l0.9,0.6l0.2,0.1l0.9,0.5l0.2,0.1
			l1,0.6l0.2,0.1l1,0.6h0.1l1,0.5l0.2,0.1l1.1,0.5l0.2,0.1l1,0.5l0.2,0.1l1.1,0.5l0.3,0.1l1.2,0.5C206.5,484.7,202.8,503,202.8,503
			L202.8,503z"/>
		<path class="st9" d="M126.3,551.8l3.9,68c0.4,7.2-2,14.4-6.7,19.9c-2.1,2.5-4.6,4.8-7.2,6.8c-9.2,6.6-28.9,75.8-28.9,75.8
			s22.3,1.3,28.5,5.7c0,0,1.3-17.5,4.8-19.3s29.4-53,29.4-53L176,589c0,0,20.6,35.5,38.1,41.6v14.9c0,0,9.6,43.8,13.1,48.6
			s0,24.1,0,24.1s10.1,12.7,33.3-0.9c0,0-7.4-8.3-7-18.4s-10.1-65.3-10.1-65.3s1.3-21-9.2-34.2s-28.1-63.5-28.1-63.5l-12.1-26
			L126.3,551.8z"/>
		<path class="st10" d="M91.4,722.2c0,0,19.7-69.2,28.9-75.8c2.8-2.1,5.4-4.5,7.6-7.2c4.5-5.4,6.8-12.4,6.3-19.4l-3.9-68l64.6-39.9
			L194,510l-67.7,41.7l3.9,68c0.5,7.1-1.8,14-6.3,19.5c-2.2,2.7-4.8,5.1-7.6,7.2c-9.2,6.6-28.9,75.8-28.9,75.8s22.3,1.3,28.5,5.7
			c0,0,0.1-0.7,0.2-1.8C107.5,723.2,91.4,722.3,91.4,722.2L91.4,722.2z M231.2,718.3c0,0,3.5-19.3,0-24.1S218,645.5,218,645.5v-14.9
			c-17.5-6.1-38.1-41.7-38.1-41.7l-1.5,4c5.9,9.4,21.8,32.8,35.7,37.7v14.9c0,0,9.6,43.8,13.1,48.6s0,24.1,0,24.1s4.9,6.2,15.7,5.3
			C234.9,723,231.2,718.3,231.2,718.3L231.2,718.3z"/>
		<path class="st11" d="M277.1,475.5l-8.6,0.6l-4.5,0.3v-11l6-1.1l3.7-0.7c0,0,11.4-33.7,22.4-27.6S277.1,475.5,277.1,475.5
			L277.1,475.5z M139,385.3c0,0-5.7,21.9-7.4,35.5s40.8,2.6,40.8,2.6s-16.2-19.7-7-30.2L139,385.3z"/>
		<path class="st12" d="M185.1,476.4l0.9,8.3l-13.6-0.9l-13.6-11.9l-13.7-38l-8.8-13.6l-6.6-8.3l2.6-10.1c0,0,1.2,1,3.2,2.6
			c6.7,5.1,22.3,15.7,33.8,12.8c0.5-0.1,1.1-0.3,1.6-0.5l17.1,29.4L185.1,476.4z"/>
		<path class="st10" d="M135.9,399.3c0,0-7,1.3-11.8,11.8c-3.7,8.1-16.2,16.4-21.8,19.9c-2.2,1.3-3.7,3.4-4.2,5.9
			c-1.1,5-1.6,14.3,4.6,27.7c9.6,21,16.7,30.2,16.7,30.2s1.8,21-0.9,27.2s0,39.9,0,39.9s46,8.8,61.3,0s13.1-42.5,13.1-42.5
			s14.5,30.6,19.7,31.5l-3.1-17.1c0,0-17.1-18.4-18-42.1c0,0-5.3-21.5-0.9-27.2c0,0,74.1,6.1,78.4,0.9c0,0-48.6-2.2-56.1-14
			c0,0-21.5-17.1-22.4-28.5c-0.3-4.3-2.7-8.2-6.6-10.3c-3-1.7-6.4-2.5-9.8-2.2l-9.9,0.7c0,0,17.1,30.2,16.2,34.2s0.9,35.9,0.9,35.9
			s-19.7-42.5-28.4-47.4s-18.7-24.5-18.7-24.5L135.9,399.3"/>
		<path class="st10" d="M185.1,476.4l0.9,8.3l-13.6-0.9l-13.6-11.9l-13.7-38l-8.8-13.6l-6.6-8.3l2.6-10.1c0,0,1.2,1,3.2,2.6
			l-0.6,3.5c0,0,10.1,19.8,18.8,24.6s28.5,47.3,28.5,47.3s-1.8-32-0.9-35.9c0.6-2.7-7.1-17.5-12.1-26.7c0.5-0.1,1.1-0.3,1.6-0.5
			l17.1,29.3L185.1,476.4z M268.4,476.1l-4.5,0.3v-11l6-1.1C267.8,467.1,267.8,472,268.4,476.1z"/>
		<path class="st9" d="M135.9,398c0,0-7,1.3-11.8,11.8c-3.7,8.1-16.2,16.4-21.8,19.9c-2.2,1.3-3.7,3.4-4.2,5.9
			c-1.1,5-1.6,14.3,4.6,27.7c9.6,21,16.7,30.2,16.7,30.2s1.8,21-0.9,27.2s0,39.9,0,39.9s46,8.8,61.3,0s13.1-42.6,13.1-42.6
			s14.5,30.7,19.7,31.6l-3.1-17.1c0,0-17.1-18.4-18-42.1c0,0-5.3-21.5-0.9-27.2c0,0,17.1,18.4,36.4,18s42.1,2.2,42.1,2.2
			s-4.4-14,0-19.3c0,0-48.6-2.2-56.1-14c0,0-21.5-17.1-22.4-28.5c-0.3-4.3-2.7-8.2-6.6-10.3c-3-1.7-6.4-2.5-9.8-2.2l-9.9,0.7
			c0,0,17.1,30.2,16.2,34.2s0.9,35.9,0.9,35.9s-19.7-42.5-28.4-47.3S134.2,408,134.2,408L135.9,398"/>
		<path class="st10" d="M126.3,444c0,0,10.5,35.5,16.6,39.9s43.4,26.7,54.3,21.5c0,0,2.6,13.1-1.3,16.2c0,0-40.9-1.6-41.2-1.8
			c0,0-26.7-3.5-31.1-16.6s-9.6-35.5-9.6-35.5L126.3,444z"/>
		<ellipse class="st13" cx="182.4" cy="481.9" rx="1.5" ry="2.2"/>
		<ellipse class="st13" cx="186.8" cy="497.2" rx="1.5" ry="2.2"/>
		<path class="st10" d="M121.5,560.1c0,0-2.6-33.7,0-39.9s0.9-27.2,0.9-27.2s-7-9.2-16.7-30.2c-6.1-13.4-5.7-22.7-4.6-27.7
			c0.6-2.5,2.1-4.6,4.2-5.9c5.6-3.4,18.1-11.8,21.8-19.9c2.7-5.9,6.1-8.9,8.6-10.4l0.2-1c0,0-7,1.3-11.8,11.8
			c-3.7,8.1-16.2,16.4-21.8,19.9c-2.2,1.3-3.7,3.4-4.2,5.9c-1.1,5-1.6,14.3,4.6,27.7c9.6,21,16.7,30.2,16.7,30.2s1.8,21-0.9,27.2
			s0,39.9,0,39.9s32.9,6.3,52.3,2.9C151,565.8,121.5,560.1,121.5,560.1z M180.6,444c-0.6,2.7,0,18.6,0.5,28.3
			c2.1,4.3,3.4,7.2,3.4,7.2s-1.8-32-0.9-35.9c0.8-3.8-14.6-31.2-16.1-34l-3.2,0.2C164.4,409.8,181.5,440,180.6,444z M230.1,480.8
			c-19.3,0.4-36.4-18-36.4-18c-0.5,0.7-0.9,1.5-1.1,2.4c5,4.7,19,16.4,34.4,16c19.3-0.4,42.1,2.2,42.1,2.2s-0.1-0.3-0.2-0.8
			C256,481.3,243.1,480.7,230.1,480.8L230.1,480.8z M196,517.6c0,0,0.2,2.7,0.1,6.9c4.6,9,12.9,24.5,16.6,25.1l-0.6-3.6
			C205.6,538,196,517.6,196,517.6L196,517.6z"/>
		<path class="st11" d="M208.2,513.2l-9.3,2l-7.3,1.5l3.9-11l2.7-0.7l4.3-1.1c0,0,6.1-30.7,18.4-28.5S208.2,513.2,208.2,513.2
			L208.2,513.2z"/>
		<path class="st10" d="M198.9,515.2l-7.3,1.5l3.9-11l2.7-0.7C198.9,508.4,199.1,511.8,198.9,515.2L198.9,515.2z"/>
		<path class="st9" d="M126.3,443.1c0,0,10.5,35.5,16.6,39.9s43.4,26.7,54.3,21.5c0,0,2.6,13.1-1.3,16.2c0,0-40.9-1.6-41.2-1.8
			c0,0-26.7-3.5-31.1-16.6s-9.6-35.5-9.6-35.5L126.3,443.1z"/>
		<path class="st10" d="M139.4,386.1c0,0-0.9,3.4-2.1,8.4c5,9.4,15.7,14.4,26.1,12c-1.1-4.5-0.8-9,2.3-12.6L139.4,386.1z"/>
		<circle class="st11" cx="157.8" cy="382.6" r="23.7"/>
		<path class="st10" d="M178.4,376.1c1.7,0.5,3.5,0.6,5.3,0.3c3.7-0.8,6.3-4.5,6.4-8.3c-0.1-3.8-1.9-7.4-4.9-9.8
			c-2-1.7-4.4-2.9-6.2-4.7c-2.2-2.2-3.4-5.2-5-7.8c-2.8-4.3-7-7.6-11.9-9.2c-3.6-1.2-8.1-1.4-10.9,1.3c-1.4,1.4-2.3,3.3-3.9,4.4
			c-2.3,1.6-5.5,1.2-8.3,1.5c-5.2,0.8-9.7,4.1-11.9,8.9c-2.1,4.8-2.6,10.1-1.2,15.2c0.6,2.1,1.3,4.2,1.9,6.4
			c1.2,4.5,1.5,9.1,2.9,13.5s4.4,8.7,8.8,10c-0.4-4.9,0.6-9.9,2.8-14.3c0.4-1,1.1-1.8,2-2.2c0.8-0.2,1.6-0.2,2.4,0
			c5.5,0.8,11.2-0.3,16-3.2c1.7-1,4.3-4.5,6.1-4.9C171.3,372.8,176,375.6,178.4,376.1L178.4,376.1z"/>
		<path class="st14" d="M178.4,375.2c1.7,0.5,3.5,0.6,5.3,0.3c3.7-0.8,6.3-4.5,6.4-8.3c-0.1-3.8-1.9-7.4-4.9-9.8
			c-2-1.7-4.4-2.9-6.2-4.7c-2.2-2.2-3.4-5.2-5-7.8c-2.8-4.3-7-7.6-11.9-9.2c-3.6-1.2-8.1-1.4-10.9,1.3c-1.4,1.4-2.3,3.3-3.9,4.4
			c-2.3,1.6-5.5,1.2-8.3,1.5c-5.2,0.8-9.7,4.1-11.9,8.9c-2.1,4.8-2.5,10.1-1.2,15.1c0.6,2.1,1.3,4.2,1.9,6.4
			c1.2,4.5,1.5,9.1,2.9,13.5s4.4,8.7,8.8,10c-0.4-4.9,0.6-9.9,2.8-14.3c0.4-1,1.1-1.8,2-2.2c0.8-0.2,1.6-0.2,2.4,0
			c5.5,0.8,11.2-0.3,16-3.2c1.7-1,4.3-4.5,6.1-4.9C171.3,371.9,176,374.7,178.4,375.2L178.4,375.2z"/>
	</g>
</g>
<path class="st15" d="M148.7,143.3h922.4c6.9,0,12.5,5.6,12.5,12.5v504c0,6.9-5.6,12.5-12.5,12.5H148.7c-6.9,0-12.5-5.6-12.5-12.5
	v-504C136.2,148.9,141.8,143.3,148.7,143.3z"/>
<path class="st16" d="M1078.8,137.2H141c-2.7,0-4.8,2.2-4.8,4.8v20.4h947.4V142C1083.6,139.4,1081.4,137.2,1078.8,137.2z"/>
<g id="_x34_856ee63-6c9d-47e3-9e79-3603b2312fc4">
	<circle class="st6" cx="155.1" cy="149.8" r="6.5"/>
	<circle class="st6" cx="172.6" cy="149.8" r="6.5"/>
	<circle class="st6" cx="190.1" cy="149.8" r="6.5"/>
</g>
<path class="st17" d="M209.8,279.5h769.6c5.6,0,10.2,4.6,10.2,10.2v283.6c0,5.6-4.6,10.2-10.2,10.2H209.8c-5.6,0-10.2-4.6-10.2-10.2
	V289.7C199.6,284,204.2,279.5,209.8,279.5z"/>
<path class="st6" d="M229,251l769.4,19.6c5.6,0.1,10.1,4.8,9.9,10.4l-7.2,283.5c-0.1,5.6-4.8,10.1-10.4,9.9l-769.4-19.6
	c-5.6-0.1-10.1-4.8-9.9-10.4l7.2-283.5C218.7,255.3,223.4,250.9,229,251z"/>
<line class="st18" x1="337" y1="314.3" x2="887.3" y2="328.2"/>
<line class="st18" x1="335.9" y1="357.2" x2="886.2" y2="371.2"/>
<line class="st18" x1="334.8" y1="400.2" x2="885.2" y2="414.2"/>
<line class="st18" x1="333.7" y1="443.2" x2="884.1" y2="457.2"/>
<line class="st19" x1="383.8" y1="432.8" x2="382.4" y2="487.5"/>
<line class="st18" x1="332.6" y1="486.2" x2="883" y2="500.2"/>
<line class="st19" x1="444.6" y1="489" x2="446.7" y2="407.6"/>
<line class="st19" x1="512" y1="355.6" x2="508.5" y2="490.7"/>
<line class="st19" x1="572.2" y1="407.3" x2="570.1" y2="492.2"/>
<line class="st19" x1="632.2" y1="417.2" x2="630.3" y2="493.8"/>
<line class="st19" x1="690.4" y1="348.8" x2="686.7" y2="495.2"/>
<line class="st19" x1="749.6" y1="343.6" x2="745.7" y2="496.7"/>
<line class="st19" x1="815.2" y1="401.2" x2="812.7" y2="498.4"/>
<circle class="st20" cx="815.3" cy="399.9" r="6"/>
<path class="st20" d="M815.6,400.8c-11.7,4.4-24.1-2.2-31.2-9.1c-6.1-6-10.5-13.4-14.8-20.6c-1.3-2.3-2.8-4.6-4.2-6.9
	c-7.4-11.8-14.8-19.7-23.3-24.9c-3.1-1.9-6.4-3.4-9.9-4.5c-0.6-0.2-1.3-0.4-2-0.6c0.3-0.6,0.5-1.3,0.5-2c0.7,0.2,1.3,0.4,2,0.6
	c3.7,1.2,7.2,2.8,10.5,4.8c8.8,5.4,16.4,13.5,24,25.6c1.4,2.3,2.8,4.6,4.2,6.9c4.2,7.1,8.5,14.4,14.4,20.1
	c6.6,6.5,18.2,12.7,29.1,8.7L815.6,400.8z"/>
<path class="st21" d="M620.7,502.6l18.6,0.5c0.5,0,0.9,0.4,0.9,0.9l-0.2,7.2c0,0.5-0.4,0.9-0.9,0.9l-18.6-0.5
	c-0.5,0-0.9-0.4-0.9-0.9l0.2-7.2C619.8,503,620.2,502.6,620.7,502.6z"/>
<g>
	<path class="st22" d="M808.7,401.1c-9.8,0.9-19.4-4.6-25.3-10.4c-6.1-6-10.5-13.4-14.8-20.6c-1.3-2.3-2.8-4.6-4.2-6.9
		c-7.4-11.8-14.8-19.7-23.3-24.9c-3.1-1.9-6.4-3.4-9.9-4.5c-0.3,0.8-0.8,1.5-1.4,2.1c-1.3,1.3-3,2.1-4.9,2.1h-0.3
		c-3.4-0.1-6.3-2.7-6.8-6.1c-3.1,0.1-6.3,0.8-9.2,1.9c-8.7,3.3-15.4,10.4-21.4,17.3c-7.3,8.4-14.3,17.2-20.9,26.3
		c-1.3,1.8-2.7,3.6-4,5.5c-7.1,9.9-14.5,20.2-24,28.2c-12.8,10.8-28.2,15.5-41.1,12.5c-15.6-3.6-26.7-17.4-34.6-28.9
		c-1-1.5-2-3-3.1-4.5c-7.4-11-15.1-22.4-26.4-29c-14.9-8.8-35.5-7.2-49,3.6c-6.6,5.3-11.5,12.4-16.3,19.4c-1.6,2.4-3.3,4.8-5.1,7.2
		c-9,12.1-18.1,18.6-27.9,20.1c-3.9,0.4-7.8,0.4-11.7,0c-2.6-0.2-5.2-0.4-7.9-0.3c-13.2,0.6-25.2,8-31.6,19.7l-1.4,57.6l432.3,11
		l2.4-95.2c-2.9,1.6-6.6,0.5-8.1-2.4C808.8,401.6,808.7,401.4,808.7,401.1L808.7,401.1z"/>
	<path class="st20" d="M730.6,327.1c-1.3-1.3-3.1-2-5-2c-3.4,0.1-6.3,2.6-6.8,5.9c-0.1,0.4-0.1,0.8-0.1,1.2c0,0.3,0,0.5,0.1,0.8
		c0.2,1.6,0.9,3,2.1,4.1c1.2,1.2,2.9,2,4.7,2h0.3c1.9,0,3.6-0.8,4.9-2.1c0.6-0.6,1.1-1.3,1.4-2.1c0.3-0.6,0.4-1.3,0.5-2
		c0-0.3,0-0.6,0-0.9C732.7,330.1,731.9,328.4,730.6,327.1z M730.3,334.3c-0.2,0.5-0.5,0.9-0.9,1.3c-1.9,2-5.1,2-7.1,0.1
		c-0.7-0.7-1.3-1.7-1.4-2.7c-0.1-0.3-0.1-0.5-0.1-0.8c0-0.4,0-0.8,0.1-1.2c0.5-2.2,2.5-3.9,4.8-3.9h0.2c2.7,0.1,4.8,2.2,4.9,4.9
		c0,0.1,0,0.2,0,0.3C730.7,333,730.6,333.7,730.3,334.3z"/>
	<path class="st20" d="M720.8,332.2c0,0.3,0,0.5,0.1,0.8c-0.7,0-1.4,0-2,0c-3.2,0.2-6.3,0.8-9.2,1.9c-8.7,3.3-15.4,10.4-21.4,17.3
		c-7.3,8.4-14.3,17.2-20.9,26.2c-1.3,1.8-2.6,3.7-4,5.5c-7.1,9.9-14.5,20.2-24,28.2c-12.8,10.8-28.2,15.5-41.2,12.5
		c-15.5-3.6-26.7-17.4-34.7-28.9c-1-1.5-2.1-3-3.1-4.5c-7.4-11-15.1-22.4-26.4-29c-14.9-8.8-35.5-7.2-49,3.6
		c-6.5,5.3-11.5,12.4-16.3,19.3c-1.7,2.4-3.3,4.9-5.1,7.2c-9,12.1-18.1,18.6-27.9,20.1c-3.9,0.4-7.8,0.4-11.7,0
		c-2.6-0.2-5.2-0.3-7.9-0.3c-14.2,0.6-26.9,9.1-32.8,22.1l-1.8-0.8c6.2-13.7,19.6-22.7,34.6-23.3c2.7,0,5.4,0.1,8.1,0.3
		c3.7,0.4,7.5,0.4,11.2,0c9.2-1.3,17.9-7.6,26.5-19.3c1.7-2.3,3.4-4.8,5.1-7.1c4.9-7,9.9-14.3,16.7-19.8c14.7-11.5,35-13,51.3-3.7
		c11.7,6.9,19.5,18.4,27.1,29.6c1,1.5,2,3,3.1,4.5c7.8,11.3,18.5,24.7,33.5,28.1c12.4,2.9,27.1-1.6,39.4-12.1
		c9.3-7.9,16.6-18,23.7-27.9c1.3-1.8,2.6-3.7,4-5.5c6.6-9,13.7-17.9,21-26.4c6.2-7.2,13-14.4,22.2-17.9c3.2-1.2,6.5-1.9,9.9-2
		c0.7,0,1.4-0.1,2,0C720.8,331.4,720.7,331.8,720.8,332.2z"/>
	<path class="st23" d="M338.1,305.3l18.6,0.5c0.5,0,0.9,0.4,0.9,0.9l-0.2,7.2c0,0.5-0.4,0.9-0.9,0.9l-18.6-0.5
		c-0.5,0-0.9-0.4-0.9-0.9l0.2-7.2C337.2,305.7,337.6,305.3,338.1,305.3z"/>
	<path class="st20" d="M337,348.3l18.6,0.5c0.5,0,0.9,0.4,0.9,0.9l-0.2,7.2c0,0.5-0.4,0.9-0.9,0.9l-18.6-0.5c-0.5,0-0.9-0.4-0.9-0.9
		l0.2-7.2C336.1,348.7,336.5,348.3,337,348.3z"/>
	<path class="st23" d="M335.9,391.3l18.6,0.5c0.5,0,0.9,0.4,0.9,0.9l-0.2,7.2c0,0.5-0.4,0.9-0.9,0.9l-18.6-0.5
		c-0.5,0-0.9-0.4-0.9-0.9l0.2-7.2C335,391.7,335.4,391.3,335.9,391.3z"/>
	<path class="st23" d="M334.8,434.3l18.6,0.5c0.5,0,0.9,0.4,0.9,0.9l-0.2,7.2c0,0.5-0.4,0.9-0.9,0.9l-18.6-0.5
		c-0.5,0-0.9-0.4-0.9-0.9l0.2-7.2C333.9,434.7,334.3,434.3,334.8,434.3z"/>
	<path class="st23" d="M333.7,477.3l18.6,0.5c0.5,0,0.9,0.4,0.9,0.9l-0.2,7.2c0,0.5-0.4,0.9-0.9,0.9l-18.6-0.5
		c-0.5,0-0.9-0.4-0.9-0.9l0.2-7.2C332.8,477.6,333.2,477.2,333.7,477.3z"/>
	<path class="st23" d="M371.6,496.2l18.6,0.5c0.5,0,0.9,0.4,0.9,0.9l-0.2,7.2c0,0.5-0.4,0.9-0.9,0.9l-18.6-0.5
		c-0.5,0-0.9-0.4-0.9-0.9l0.2-7.2C370.7,496.6,371.1,496.2,371.6,496.2z"/>
	<path class="st23" d="M435.1,497.8l18.6,0.5c0.5,0,0.9,0.4,0.9,0.9l-0.2,7.2c0,0.5-0.4,0.9-0.9,0.9l-18.6-0.5
		c-0.5,0-0.9-0.4-0.9-0.9l0.2-7.2C434.1,498.2,434.6,497.8,435.1,497.8z"/>
	<path class="st20" d="M496.7,502.2l18.6,0.6c0.5,0,0.9,0.4,0.9,0.9l-0.2,7.2c0,0.5-0.4,0.9-0.9,0.9l-18.6-0.6
		c-0.5,0-0.9-0.4-0.9-0.9l0.2-7.2C495.8,502.5,496.2,502.1,496.7,502.2z"/>
	<path class="st23" d="M560.5,501l18.6,0.5c0.5,0,0.9,0.4,0.9,0.9l-0.2,7.2c0,0.5-0.4,0.9-0.9,0.9l-18.6-0.5c-0.5,0-0.9-0.4-0.9-0.9
		l0.2-7.2C559.6,501.4,560,501,560.5,501z"/>
	<path class="st20" d="M677.1,504l18.6,0.5c0.5,0,0.9,0.4,0.9,0.9l-0.2,7.2c0,0.5-0.4,0.9-0.9,0.9l-18.6-0.5c-0.5,0-0.9-0.4-0.9-0.9
		l0.2-7.2C676.2,504.4,676.6,504,677.1,504z"/>
	<path class="st20" d="M736.6,505.5l18.6,0.5c0.5,0,0.9,0.4,0.9,0.9l-0.2,7.2c0,0.5-0.4,0.9-0.9,0.9l-18.6-0.5
		c-0.5,0-0.9-0.4-0.9-0.9l0.2-7.2C735.7,505.9,736.1,505.5,736.6,505.5z"/>
	<path class="st20" d="M801.5,511.3l17.6,0.5c0.8,0,1.4,0.7,1.3,1.4l-0.2,6.2c0,0.8-0.7,1.4-1.4,1.3l-17.6-0.5
		c-0.8,0-1.4-0.7-1.3-1.4l0.2-6.2C800.1,511.9,800.7,511.3,801.5,511.3z"/>
</g>
<path class="st24" d="M980.9,605.5c5.5,0,9.9,4.4,9.9,9.9s-4.4,9.9-9.9,9.9s-9.9-4.4-9.9-9.9c0-2.6,1-5.1,2.9-7
	C975.7,606.5,978.2,605.5,980.9,605.5 M980.9,604c-6.3,0-11.5,5.1-11.5,11.4s5.1,11.5,11.4,11.5c6.3,0,11.5-5.1,11.5-11.5l0,0
	C992.3,609.1,987.2,603.9,980.9,604z"/>
<path class="st24" d="M977.8,618.8l0.6-0.8c0.6,0.6,1.4,0.9,2.2,0.9c1,0,1.8-0.5,1.8-1.3s-0.7-1.5-2.8-1.5v-0.9
	c1.8,0,2.5-0.6,2.5-1.4s-0.6-1.2-1.5-1.2c-0.7,0-1.4,0.3-1.9,0.8l-0.6-0.8c0.7-0.6,1.6-1,2.6-1c1.6,0,2.7,0.8,2.7,2.1
	c0,0.9-0.7,1.5-1.7,1.9l0,0c1,0.1,1.9,1,1.9,2c0,1.4-1.3,2.3-2.9,2.3C979.6,619.9,978.6,619.5,977.8,618.8z"/>
<path class="st16" d="M1028.2,606.2c5.5,0,9.9,4.4,9.9,9.9s-4.4,9.9-9.9,9.9s-9.9-4.4-9.9-9.9c0-2.6,1-5.1,2.9-7
	C1023,607.2,1025.5,606.2,1028.2,606.2 M1028.2,604.6c-6.3,0-11.5,5.1-11.5,11.4s5.1,11.5,11.4,11.5s11.5-5.1,11.5-11.4l0,0
	C1039.6,609.8,1034.5,604.6,1028.2,604.6L1028.2,604.6L1028.2,604.6z"/>
<path class="st16" d="M1028.3,614.9c0-0.5,0-1.1,0.1-1.6h-0.1c-0.3,0.4-0.6,0.9-0.9,1.3l-2,2.6h5.4v1h-6.8v-0.8l4.1-5.3h1.5v8.5
	h-1.2L1028.3,614.9z"/>
<path class="st16" d="M1002.1,609.5c0.4-0.4,1.1-0.4,1.5,0l5.2,5.2c0.4,0.4,0.4,1,0,1.4l0,0l-5.1,5.1c-0.4,0.4-1,0.4-1.4,0.1
	c0,0,0,0-0.1-0.1c-0.4-0.4-0.4-1-0.1-1.4c0,0,0,0,0.1-0.1l4.4-4.4l-4.4-4.4C1001.7,610.6,1001.6,610,1002.1,609.5
	C1002,609.6,1002,609.5,1002.1,609.5L1002.1,609.5z"/>
<path class="st16" d="M993.3,615.4c0,6.2,5,11.3,11.2,11.3s11.3-5,11.3-11.2s-5-11.3-11.2-11.3l0,0
	C998.3,604.2,993.3,609.2,993.3,615.4z M995,615.4c0-5.3,4.2-9.5,9.5-9.5s9.5,4.2,9.5,9.5s-4.2,9.5-9.5,9.5c-2.5,0-5-1-6.8-2.8
	C996,620.3,995,617.9,995,615.4z"/>
<path class="st25" d="M169.9,189h219.5c2.1,0,3.9,1.7,3.9,3.9V209c0,2.1-1.7,3.9-3.9,3.9H169.9c-2.1,0-3.9-1.7-3.9-3.9v-16.1
	C166.1,190.8,167.8,189,169.9,189z"/>
<linearGradient id="SVGID_3_" gradientUnits="userSpaceOnUse" x1="629.3372" y1="16.865" x2="629.3372" y2="549.3503" gradientTransform="matrix(0.9993 -3.838781e-02 -3.838781e-02 -0.9993 -45.9027 814.1235)">
	<stop  offset="0" style="stop-color:#808080;stop-opacity:0.25"/>
	<stop  offset="0.54" style="stop-color:#808080;stop-opacity:0.12"/>
	<stop  offset="1" style="stop-color:#808080;stop-opacity:0.1"/>
</linearGradient>
<path class="st26" d="M707.2,757.1c-1.7-6-2.7-11.3-2.7-11.3s0.1-6.6-3.1-11.5l-0.1-1.7l0,0l-0.5-12.2c0.8-2.2,1.7-4.4,2.8-6.5
	c2.1-3.9-0.7-17.9-0.7-17.9s-8.9-19.5-7.4-32.1s-18.9-55.2-18.9-55.2c0-4.2,0.4-8.3,1.3-12.4c0.2-0.9,0.2-1.7,0.1-2.6
	c0-0.1,0-0.2,0-0.3v0.1c-0.6-8.3-7.7-23.5-7.7-23.5l-0.3-29.6c0,0,3.5-17.6-4.2-40.8c-2.7-8.1-4.5-14.6-5.6-19.6
	c-0.1-0.6-0.3-1.1-0.4-1.6c14-2.7,24.6-4.9,24.6-4.9s-9.5-33.8-15.2-39.5s-10.9-24.3-10.9-24.3s-3.8-24,0.6-31.2s4.5-19.4,4.5-19.4
	s10.3-8.1,11.5-11.5s3.1-11.2,2.9-15.3s-1.6-7.6-1.3-9.8s-3.5-10.1-1.9-14c0.4-1.2,0.6-2.5,0.6-3.7v-0.1l0,0
	c-0.1-3.4-0.6-6.7-1.3-10c-3.1-2.5-6.8-4.2-10.7-5.2l-0.3-0.9l-0.7-2.4c-0.4-0.2-0.7-0.4-1.1-0.6l-0.1-0.9l-0.2-3.5l1.3-7.8
	c2.7-13.6-15.4-15-15.4-15c-1.2-2-3.1-3.6-5.3-4.3c-3.7-1.1,0.2,20.4,1.9,21.7c1.3,1,5.5,7.6,7.5,10.9l0,0l0.3,0.5
	c-0.3,0.3-0.5,0.6-0.8,0.9l0.9,4.7l0.1,0.7c-1.1,1.5-2,3.2-2.7,5c0,0,3.4,3.5,2.9,7.6s1.4,9,1.5,9.3c-0.2-0.2-2.6-2.6-4.9-1.9
	s-8.7,2.9-8.7,2.9s-4.8,1-4.3,2.1s-3.1,5.9-3.1,5.9l-13-11.7c-0.1-0.4-0.3-0.7-0.4-1.1c-0.6-1.7-1.1-3.5-1.3-5.4
	c1.4-0.4,2.8-0.9,4.1-1.5c1.3-0.5,2.6-1.4,3.5-2.4c1.2-1.6,1.4-3.7,1.9-5.7c0.9-3.8,3-7.3,4.4-10.9c2.4-6.1,3.1-12.9,1.8-19.4
	c-0.3-2-1-3.9-2.2-5.6c-2.2-2.8-6.1-3.9-9-6.1c-2.9-2.2-4.8-5.7-8.2-7.3c-3-1.5-6.6-1.1-9.9-0.5c-6.5,1.3-12.7,3.8-18.2,7.4
	c-1.8,1.2-3.9,2.6-6.1,2.3c-1.9-0.3-3.3-1.7-4.6-3.1c0-0.1,0-0.1,0-0.2l-0.2-0.2c-1.3,3.1-1.8,6.5-1.6,9.8c0,0.5,0,1,0.1,1.6
	c0,0.2,0,0.4,0,0.5s0,0.3,0,0.5l0,0c0,0.2,0,0.5-0.1,0.7c-0.2,0.7-0.6,1.3-1.2,1.8c-0.4,0.5-0.7,1-1,1.5c0-0.2,0.1-0.4,0.2-0.5
	c-0.8,1.2-1.2,2.7-1.2,4.1c0,1.1,0.4,2.1,1.1,2.9c0.7,0.6,1.4,1.2,2.2,1.6c-0.2,1.4-0.3,2.9-0.2,4.4c0.4,8.8,5.3,16.8,13.1,21
	l0.5,1.1c1.8,4.3,3.3,9.4,2.9,14.1c0,0.4-0.1,0.7-0.1,1c-0.2,0.2-0.3,0.4-0.5,0.6l0,0c0,0-21.5,1-26.7-3.4S550,328,550,328
	s-7.6,1.8-9.2,0.4s-10.6,0.2-10.6,0.2c-3.8-3.1-8.7-4.7-13.6-4.4c-3.1-2.2-6.5-3.9-10-5.1l0,0l-0.2-0.1l0,0
	c-1.6-0.5-3.2-0.7-4.9-0.4c0,0-10.9-8.3-14.2-12.9s-18.6-21.4-18.7-21.5l-0.1-0.9l-0.3-2.5c-0.4,0.1-0.9,0.1-1.3,0.2
	c-0.1-0.2-0.2-0.5-0.3-0.9c-0.9-2.4-2.1-4.8-3.4-7c0,0-0.1-3.2,0.8-4s-0.9-12.5-0.9-12.5s-10.4-21.9-18.3-4.9
	c0,0-15.7,11.4-1.7,23.4c0,0,5.5,2.4,6.3,4.4c0.5,1.3,2.5,5,3.9,7.5l0.6,1.1l-0.1,0.1l0.3,2.1l0.1,0.8c-2.5,1.5-4.2,3-3.7,4.1
	c0.8,1.8,1.4,3.7,1.8,5.7c0,0,19.6,22.7,22.4,32.6c0,0,51.3,27.9,67.9,29.4l-2.3,15c0,0-0.5,9-0.2,12.2s-1.3,17.8-1.3,17.8
	s-2,21.4-4.3,24.5s-1.4,15.8-1.4,15.8c-0.3,6.1-1.2,12.2-2.6,18.2c-2.1,8.2,0,18.1,0,18.1s-7.6,19.5,11.9,5.7c0,0,9.8-1,21.1-1.8
	c0,0.4,0,0.7,0,1.1c0,1.5,0.1,3,0.1,4.7c0.3,11,0.8,26.1,1.7,37.5c1.7,20.2,9.4,60,9.4,60l0.8,20.1c-0.3,1.9-0.4,3.8-0.3,5.8
	c0.1,7.1,2.3,14,6.2,19.9l2.1,13.4c0,0,4,8.7,4.2,14c0,0.4,0,0.9-0.1,1.3c-0.1,0.7-0.1,1.4-0.1,2.1c0,6.1,4.3,20.5,4.3,20.5
	s0.8,14.7,3,15.5c1.9,0.7-2.2,8.6-3.4,10.8c0-0.1-0.1-0.3-0.1-0.4l-0.2,0.5c-0.4,1.2-0.6,2.5-0.5,3.7c-0.2,2.1,0.9,4,2.6,5.1
	c4.3,2.4,6.6,4.4,3.1,5.4c-1.3,0.3-2.6,0.6-3.8,1l-0.2-0.5c-0.9,0.5-1.5,1.5-1.3,2.5c-0.1,1.1,0.4,2.6,1.5,4.9
	c3.8,7.7,6.4,10.6,6.4,10.6l1.7-0.3c-0.2,0.7-0.5,1.3-0.9,1.9c-0.6,0.9-1.4,1.7-2.4,2.3c-0.9,0.6-1.9,1-3,1.2
	c-2.4,0.2-4.6,1.4-6.1,3.3c-2.1,2.9-3.3,6.8,1.2,10.1l15.9,4.8c0,0,27.2,2.5,25.5-3.5s-2.7-11.3-2.7-11.3c0-3.7-0.9-7.4-2.6-10.7
	c-0.3-0.5-0.6-1.1-1-1.5l1-0.2c0,0,1.5-13.5,4-16.1c0.6-0.6,0.7-1.1,0.5-1.4c0.2-0.7-0.5-1.1-1.4-1.3c-0.1,0.2-0.1,0.3-0.2,0.5
	c-0.8-0.1-1.7-0.2-2.6-0.2c0,0-1.2-7,1.6-9.7c0.4-0.6,0.6-1.4,0.5-2.1c0-1-0.1-1.9-0.4-2.8c0,0-0.1,0.1-0.1,0.2
	c-1.7-6.3-7-16.3-7-16.3s-0.5-6.4,1.2-9s-1.6-34.7-1.6-34.7s0.1-15.6-2.2-22.7s1.8-15.9,1.8-15.9s0-0.2-0.1-0.5v-0.1
	c0,0-0.1-1-0.3-2.4c0,0,0,0.1,0,0.2c-0.6-4.1-1.7-11.5-2.5-14.9c-1.1-4.9-0.9-28.3-0.9-28.3l3.6-10.2l7.7,17l8.4,22.7
	c0,0,3.9,4.7,4.2,9.6c0,0.2,0,0.5,0,0.7c0,0.5,0,1,0,1.5c0,2.9,0.9,5.8,2.6,8.1c0,0,2.4,10.8,5.6,13.4s3.4,8,3.4,8
	s4.3,15.6,6.2,18.3c1.6,2.3,1.9,8.7,2,10.7l0,0c0,0.4,0,0.6,0,0.6s0.7,5.6,0.9,10.3c0,0.6,0,1.2,0,1.7v-0.1c0,1.3-0.1,2.6-0.3,3.8
	c0,0.1,0,0.1-0.1,0.2c0-0.3,0-0.5,0-0.8c-0.7,3.2-0.9,6.6-0.8,9.9c0.1,5.7,1.2,12.3,4.8,16.2c6.2,6.6,9.9,5.6,9.9,5.6
	s-2.5,8.6-6,10.5c-0.1,0.1-0.3,0.2-0.4,0.2c0-0.2-0.1-0.3-0.1-0.5c-0.7,0.9-1.1,2.1-0.9,3.2c-0.1,3.8,2.5,9.8,4.8,12.5
	c0.9,0.8,1.9,1.3,3,1.6c-0.2,0.1-0.4,0.3-0.5,0.4c-0.4,0.2-0.8,0.4-1.2,0.6c-0.6,0.3-1.2,0.5-1.8,0.5c-2.4,0.2-4.6,1.4-6.1,3.3
	c-2.1,2.9-3.3,6.8,1.2,10.1l16,4.8C681.7,760.7,708.9,763.2,707.2,757.1z"/>
<path class="st27" d="M604.2,771.2l-15.4-4.8c-4.3-3.2-3.2-7.2-1.1-10.1c1.4-1.9,3.6-3.1,5.9-3.3c1-0.2,2-0.6,2.9-1.1
	c1-0.6,1.8-1.4,2.3-2.3c1-1.8,1.6-3.9,1.5-6c0,0,16.5-5.5,21.3-0.8c0.9,0.9,1.6,1.8,2.1,2.9c1.6,3.3,2.5,7,2.6,10.7
	c0,0,1,5.3,2.7,11.3S604.2,771.2,604.2,771.2z"/>
<path class="st27" d="M678.5,760.8l-15.4-4.8c-4.3-3.2-3.1-7.2-1.1-10.1c1.4-1.9,3.6-3.1,5.9-3.3c0.6-0.1,1.2-0.3,1.7-0.5
	c0.4-0.2,0.8-0.4,1.2-0.6c4.2-2.5,3.8-8.2,3.8-8.2s16.5-5.5,21.3-0.8c0.6,0.6,1.2,1.3,1.7,2.1c3.1,4.8,3,11.5,3,11.5
	s1.1,5.3,2.7,11.3S678.5,760.8,678.5,760.8z"/>
<path class="st10" d="M621.6,742.8c0.9,0.9,1.6,1.8,2.1,2.9l0,0l-24.9,3.9c1-1.8,1.6-3.9,1.5-6C600.3,743.6,616.8,738.1,621.6,742.8
	z"/>
<path class="st10" d="M697.5,734.5l0.2,4.7c-3.6,6.6-22.5,5.9-28.2,2.9c0.4-0.2,0.8-0.4,1.2-0.6c4.2-2.5,3.8-8.2,3.8-8.2
	s16.5-5.5,21.3-0.8C696.5,733.1,697,733.8,697.5,734.5z"/>
<path class="st28" d="M699.7,714.2c-1.1,2.1-2,4.3-2.7,6.5l0.7,16.8c-4,7.2-26.2,5.7-29.4,2s-6.7-13.6-3.4-15.4s5.8-10.5,5.8-10.5
	s-3.6,1-9.6-5.6s-4.9-21.8-4-25.4s-0.6-15.8-0.6-15.8s-0.1-8.5-1.9-11.2s-6-18.3-6-18.3s-0.2-5.3-3.3-8s-5.4-13.4-5.4-13.4
	c-1.8-2.6-2.7-5.9-2.5-9.1c0.4-5.3-4-10.9-4-10.9l-8.1-22.7l-7.5-17l-3.5,10.2c0,0-0.2,23.5,0.9,28.3s2.8,17.8,2.8,17.8
	s-3.9,8.7-1.7,15.8s2.2,22.7,2.2,22.7s3.2,32.1,1.5,34.7s-1.1,9-1.1,9s9.5,18.4,6.8,21.1s-1.5,9.7-1.5,9.7s6-0.2,3.5,2.4
	s-3.8,16.1-3.8,16.1l-25.6,4c0,0-2.5-2.9-6.2-10.6s0.4-7,3.8-8s1.2-3-3-5.4s-2-8.2-2-8.2s5.8-10.7,3.6-11.4s-2.9-15.5-2.9-15.5
	s-4.9-17.3-4-22s-4-15.8-4-15.8l-2-13.4c-8.3-13-5.8-25.2-5.8-25.2l-0.8-20.7c0,0-7.5-39.8-9.1-60c-1-12.9-1.6-30.6-1.8-41.7
	c-0.1-6.2-0.2-10.3-0.2-10.3l91.6-13.1c0,0,0.1,4.2,2.2,13.6c1.1,5,2.9,11.5,5.5,19.6c7.5,23.2,4.1,40.8,4.1,40.8l0.3,29.6
	c0,0,8.8,19.5,7.4,26.4c-0.9,4.1-1.2,8.2-1.2,12.4c0,0,19.8,42.5,18.3,55.2s7.2,32.1,7.2,32.1S701.7,710.3,699.7,714.2z"/>
<path class="st29" d="M642.8,605.3l27.9-4.8C670.7,600.5,655.5,617.3,642.8,605.3z"/>
<path class="st10" d="M665.6,573.3c0,0,1.3,9.9-4.6,13.8C661,587.1,671.8,585,665.6,573.3z"/>
<path class="st10" d="M662.7,541.8c0,0-22.7,20.2-31.2,18.9S662.7,541.8,662.7,541.8z"/>
<path class="st10" d="M608.5,615.7c0,0-17.6,4.7-17.9,11.9S608.5,615.7,608.5,615.7z"/>
<path class="st29" d="M615.8,704.3c0,0-24.9,5.7-17.7,8.6s19.1,5,19.1,5S625.3,718,615.8,704.3z"/>
<g class="st30">
	<path d="M593.2,718.1c-1.3-0.8-2.2-2.1-2.4-3.5l-0.2,0.5c0,0-2.1,5.8,2,8.2c0.5,0.3,0.9,0.5,1.3,0.8c0.7-0.2,1.5-0.3,2.3-0.5
		C599.6,722.6,597.4,720.5,593.2,718.1z"/>
	<path d="M625.5,715.2c0.7-0.7,0.6-2.3,0.1-4.4c-1.1,1.7-1.2,4.3-1.2,6.2C624.6,716.3,625,715.7,625.5,715.2z"/>
	<path d="M617.6,609.4c-0.8,2.6-1.3,5.2-1.4,7.9c0.4-1.9,1-3.7,1.7-5.5C617.9,611.8,617.8,610.9,617.6,609.4z"/>
	<path d="M674.7,596c0.1-0.8,0.2-1.6,0.2-2.3c-0.3,1.6-0.4,3.1-0.5,4.4C674.4,597.4,674.5,596.7,674.7,596z"/>
	<path d="M619.9,685.1c0.3-0.5,0.5-2.3,0.5-4.8c-0.7,1.9-1.1,4-1,6C619.5,685.9,619.7,685.5,619.9,685.1z"/>
	<path d="M626.7,725.1c-1.6,4.9-2.4,13.2-2.4,13.2l-25.6,4c0,0-2.5-2.9-6.2-10.7c-0.3-0.7-0.6-1.3-0.8-1.8c-1.5,0.8-2.1,2.4,0.2,7
		c3.7,7.8,6.2,10.6,6.2,10.6l25.6-4c0,0,1.4-13.5,3.9-16.2C628.7,726,627.9,725.4,626.7,725.1z"/>
	<path d="M591.2,688.2c0,0,0.8,14.7,2.9,15.5l0,0c1-2.5,1.6-4.8,0.6-5.2c-2.2-0.8-2.9-15.5-2.9-15.5s-4.9-17.3-4-22s-4-15.8-4-15.8
		l-2-13.3c-8.2-12.9-5.7-25.2-5.7-25.2l-0.8-20.7c0,0-7.5-39.8-9.1-60c-1-12.9-1.6-30.6-1.8-41.7c0-2-0.1-3.8-0.1-5.2l-0.7,0.1
		c0,0,0,4.1,0.2,10.3c0.2,11,0.8,28.7,1.8,41.7c1.6,20.2,9.1,60,9.1,60l0.7,20.6c0,0-2.5,12.2,5.7,25.2l2,13.4c0,0,4.9,11.1,4,15.8
		S591.2,688.2,591.2,688.2z"/>
	<path d="M668.9,733.8c-2.2-2.9-3.7-6.3-4.5-10c-2.5,2.5,0.8,11.6,3.8,15.1c3.1,3.7,25.4,5.2,29.3-2l-0.2-4.1
		C691.9,738.8,671.9,737.3,668.9,733.8z"/>
	<path d="M700.3,708.5c-1.1,2.1-2,4.3-2.7,6.5l0.1,3c0.4-1.1,1.1-2.6,2-4.3C700.3,712,700.6,710.2,700.3,708.5
		C700.4,708.4,700.4,708.4,700.3,708.5z"/>
	<path d="M669.4,713c0.7-1.7,1.4-3.4,1.9-5.1c0,0-3.6,1-9.6-5.6c-4.4-4.8-5-14.2-4.6-20.3c-0.9,3.7-2,18.8,4,25.4
		C665,711.7,667.9,712.8,669.4,713z"/>
	<path d="M656.5,666.2c0.5,4.2,0.8,8.4,0.9,12.6c0.1-0.7,0.2-1.3,0.4-2c0.9-3.7-0.6-15.8-0.6-15.8s-0.1-8.5-1.9-11.2s-6-18.3-6-18.3
		s-0.2-5.3-3.3-8s-5.4-13.4-5.4-13.4c-1.9-2.6-2.7-5.9-2.5-9.1c0.4-5.3-4-10.9-4-10.9l-8.2-22.8l-7.5-17l-3.5,10.2c0,0,0,1.3,0,3.2
		l2.8-8.2l7.5,17l8.1,22.7c0,0,4.5,5.6,4,10.9c-0.2,3.2,0.6,6.4,2.5,9.1c0,0,2.3,10.8,5.4,13.4s3.3,8,3.3,8s4.2,15.6,6,18.3
		S656.5,666.2,656.5,666.2z"/>
</g>
<path class="st31" d="M659.3,273.8l-1.3,7.8l0.2,3.5l0.2,2.5l-8.8,1.3l-1.1-1.8l0,0c-2-3.3-6-9.9-7.3-10.9
	c-1.7-1.3-5.5-22.8-1.9-21.7c2.2,0.7,4,2.3,5.1,4.3C644.4,258.8,661.9,260.2,659.3,273.8z"/>
<path class="st10" d="M658.4,287.6l-8.8,1.3l-1.1-1.8l0,0c2.4-2.9,6.4-3.7,9.8-2L658.4,287.6z"/>
<path class="st32" d="M660.8,291.8l-11.6,3.2l-0.3-1.7l-0.8-4.7c0,0,4.4-6.4,11.3-2l0.7,2.4L660.8,291.8z"/>
<path class="st31" d="M470.4,281.9l-12.2,7.2c0,0-0.5-1-1.2-2.3c-1.3-2.5-3.2-6.1-3.7-7.5c-0.8-2-6.1-4.5-6.1-4.5
	c-13.6-12,1.6-23.3,1.6-23.3c7.6-16.9,17.7,5,17.7,5s1.7,11.7,0.8,12.5s-0.8,4-0.8,4c1.3,2.2,2.4,4.6,3.3,7
	C470.1,281.2,470.4,281.9,470.4,281.9z"/>
<path class="st10" d="M470.4,281.9l-12.2,7.2c0,0-0.5-1-1.2-2.3c1.7-1.5,7.8-6.9,9.8-6.7c1,0.1,2,0.1,3,0
	C470.1,281.2,470.4,281.9,470.4,281.9z"/>
<path class="st32" d="M471.8,285.7l-13.8,7.5l-0.4-3l-0.3-2.1c0,0,7.9-7.3,10.3-7.1c1.2,0.1,2.5,0.1,3.7-0.1l0.3,2.5L471.8,285.7z"
	/>
<path class="st31" d="M627.2,326.8c0,0-61,9.3-49.7,5.1c7.9-2.9,10.8-8.1,11.3-13.7c0.4-4.7-1-9.8-2.8-14.1
	c-1.6-3.8-3.6-7.4-5.9-10.9c0,0,45.9-27.6,37.4-3.8c-1.3,3.6-2.1,7.4-2.2,11.2c-0.1,3.8,0.4,7.6,1.6,11.2
	C618.9,317.6,622.5,322.8,627.2,326.8z"/>
<path class="st10" d="M617.5,289.4c-1.3,3.6-2.1,7.4-2.2,11.2c-4.3,3.9-9.1,3.8-15.3,4.1c-4.8,0.2-10,1.5-13.9-0.6
	c-1.6-3.8-3.6-7.4-5.9-10.9C580.1,293.2,625.9,265.6,617.5,289.4z"/>
<circle class="st31" cx="598.2" cy="281" r="25.4"/>
<path class="st10" d="M627.2,326.8c0,0-61,9.3-49.7,5.1c7.9-2.9,10.8-8.1,11.3-13.7c2.9-3.4,9-6,12.8-7.5c3.5-1.3,7.4-1.6,11.1-0.6
	c1.4,0.4,2.8,0.9,4.1,1.7C618.9,317.6,622.5,322.8,627.2,326.8z"/>
<path class="st10" d="M660.8,291.8l-11.6,3.2l-0.3-1.7c2.4-3.6,6.9-5.3,11.1-4.3L660.8,291.8z"/>
<path class="st10" d="M471.8,285.7l-13.8,7.5l-0.4-3c4.9-3.2,13.2-6.5,13.9-6.8L471.8,285.7z"/>
<path class="st10" d="M657.4,480.2c-23.6,4.7-57.2,10.8-62.6,9.4c-4.5-1.2-18.7-0.5-31,0.4c-0.1-6.2-0.2-10.3-0.2-10.3l91.6-13.1
	C655.2,466.6,655.3,470.9,657.4,480.2z"/>
<path class="st33" d="M680.9,473.7c0,0-77.6,16.4-86.1,14.2s-51.4,2.2-51.4,2.2c-18.9,13.7-11.5-5.7-11.5-5.7s-2.1-9.9-0.1-18.1
	c1.3-6,2.2-12.1,2.5-18.2c0,0-0.9-12.8,1.3-15.8s4.2-24.5,4.2-24.5s1.6-14.6,1.2-17.8s0.2-12.2,0.2-12.2l2.2-15
	c-16-1.5-65.7-29.5-65.7-29.5c-2.7-9.9-21.7-32.6-21.7-32.6c-0.3-2-0.9-3.9-1.7-5.7c-1.4-3.4,17.5-10.9,17.5-10.9
	s14.9,16.9,18.1,21.5s13.7,12.9,13.7,12.9c1.6-0.2,3.2-0.1,4.7,0.4c0.1,0,0.2,0,0.2,0.1l0,0c3.5,1.2,6.8,2.9,9.8,5.1
	c7.6-0.7,13.2,4.4,13.2,4.4s8.7-1.6,10.2-0.2s8.9-0.3,8.9-0.3s6.8-16,11.9-11.7s25.8,3.4,25.8,3.4c2.6-3.8,9.3-6.7,13.4-8.2
	c3.5-1.3,7.4-1.6,11.1-0.6c1.6,0.4,3.1,1.1,4.5,2l13.1,11.9c0,0,3.4-4.8,3-5.9s4.2-2.1,4.2-2.1s6.1-2.2,8.4-2.9s4.6,1.7,4.8,1.9
	c-0.1-0.3-1.9-5.4-1.4-9.3s-2.8-7.6-2.8-7.6c6.8-18.6,24.2-3.9,24.2-3.9s2.3,9.9,0.7,13.8s2.2,11.9,1.8,14s1.1,5.7,1.2,9.8
	s-1.7,11.7-2.9,15.2s-11,11.5-11,11.5s-0.2,12.2-4.4,19.4s-0.5,31.2-0.5,31.2s5,18.6,10.5,24.3S680.9,473.7,680.9,473.7z"/>
<path class="st10" d="M561.5,338c0,0-2.6-6.9-4.8-7.5c-2.1-0.7-4.2-1.5-6.3-2.5l1.3-2.7c0,0,8.1,1.9,9.5,4.2S561.5,338,561.5,338z"
	/>
<path class="st10" d="M518.2,324.1c-0.3,2.1-19.2,4.8-19.2,4.8l9.2-10l0,0l0.2,0.1l0,0C511.9,320.2,515.2,322,518.2,324.1z"/>
<circle class="st28" cx="462.2" cy="297" r="1.7"/>
<circle class="st28" cx="464.5" cy="300.3" r="1.7"/>
<circle class="st28" cx="466.8" cy="303.4" r="1.7"/>
<circle class="st28" cx="469.1" cy="306.7" r="1.7"/>
<circle class="st28" cx="669.8" cy="298.8" r="1.4"/>
<circle class="st28" cx="670.2" cy="301.9" r="1.4"/>
<circle class="st28" cx="670.5" cy="305.1" r="1.4"/>
<path class="st10" d="M563.9,395.7c-0.2-0.2,50.1,58.5,86,22.1C649.9,417.8,591.3,428,563.9,395.7z"/>
<path class="st10" d="M537.5,428.3c0,0,28.8-0.3,32.1,7.8l0.3,8.6c-1.6,1-3.6,1.1-5.3,0.2c-3-1.5-20.7-9.6-26.6-5.1L537.5,428.3z"/>
<path class="st33" d="M538,428.3c0,0,27.5-0.3,30.7,7.5l0.3,8.2c-1.6,0.9-3.5,1-5.1,0.2c-2.8-1.4-19.8-9.2-25.5-4.9L538,428.3z"/>
<path class="st10" d="M550.8,365.4c3.2,6.7,7.2,12.9,11.9,18.7c5.1,6.3,11.2,11.8,18.1,16.2C580.8,400.2,551.4,369.3,550.8,365.4z"
	/>
<path class="st10" d="M540.1,332.3c0,0,5.6,20.5,18.2,27L540.1,332.3z"/>
<path class="st10" d="M532.8,334.7c-0.1-0.4-3.6,16.5,16.9,25C549.8,359.7,541.1,357.1,532.8,334.7z"/>
<path class="st10" d="M657.7,316c-0.3,0,10.2,6.2,13.1,9.1C670.8,325.1,663.8,315.4,657.7,316z"/>
<path class="st27" d="M592.2,304.2c0.4,1.3,0.9,2.7,2.1,3.3c0.8,0.3,1.6,0.5,2.4,0.4c7.7,0.2,15.8,0.2,22.8-3
	c1.3-0.5,2.5-1.4,3.4-2.5c1.2-1.6,1.4-3.7,1.8-5.7c0.8-3.8,2.9-7.3,4.3-10.9c2.4-6.2,3-12.9,1.8-19.4c-0.3-2-1-3.9-2.2-5.6
	c-2.2-2.9-5.9-3.9-8.7-6.1c-2.8-2.2-4.7-5.7-7.9-7.4c-2.9-1.5-6.4-1.1-9.6-0.5c-6.3,1.3-12.3,3.8-17.6,7.4c-1.8,1.2-3.8,2.6-5.9,2.2
	c-1.9-0.3-3.3-1.8-4.5-3.2c-1.4,3.5-1.9,7.3-1.5,11.1c0.1,0.6,0.1,1.1,0,1.7c-0.2,0.7-0.6,1.3-1.1,1.8c-1.8,2.3-2.9,5.8-0.9,8
	c0.9,0.9,2.1,1.4,3,2.4c1.5,1.7,1.1,4.3,1.2,6.6c-0.1,0.8,0.2,1.6,0.7,2.2c0.9,0.7,2.1,1,3.2,0.6c1.1-0.4,2.2-0.5,3.3-0.5
	c1.2,0.3,2.3,1.1,3,2.1C588.9,293.9,590.5,298.8,592.2,304.2z"/>
<g class="st34">
	<path d="M623.7,300.5c-0.9,1.1-2.1,1.9-3.4,2.4c-7,3.2-15.1,3.2-22.8,3c-0.8,0-1.7-0.1-2.4-0.4c-1.2-0.6-1.7-2.1-2.1-3.4
		c-1.7-5.4-3.3-10.3-7-14.7c-0.7-1-1.8-1.8-3-2.1c-1.1-0.1-2.3,0.1-3.3,0.4c-1.1,0.4-2.3,0.1-3.2-0.6c-0.5-0.6-0.7-1.4-0.7-2.2
		c0-2.3,0.3-4.9-1.2-6.6c-0.8-1-2.1-1.4-3-2.4c-1.1-1.4-1.4-3.4-0.7-5.1c-1.3,2.2-1.8,5-0.1,6.8c0.8,0.9,2.1,1.4,3,2.4
		c1.5,1.7,1.1,4.3,1.2,6.6c-0.1,0.8,0.2,1.6,0.7,2.2c0.9,0.7,2.1,1,3.2,0.6c1.1-0.4,2.2-0.5,3.3-0.5c1.2,0.3,2.3,1.1,3,2.1
		c3.8,4.4,5.3,9.3,7,14.7c0.4,1.3,0.9,2.7,2.1,3.4c0.8,0.3,1.6,0.5,2.4,0.4c7.7,0.2,15.8,0.2,22.8-3c1.3-0.5,2.5-1.4,3.4-2.4
		c0.4-0.6,0.8-1.3,1-2.1C623.9,300.3,623.8,300.4,623.7,300.5z"/>
	<path d="M573,265.5c0.3-0.4,0.6-0.8,0.7-1.3c0.1-0.5,0.1-1.1,0-1.7c-0.3-3.1-0.1-6.2,0.8-9.2l-0.2-0.2c-1.4,3.5-1.9,7.3-1.5,11.1
		C573,264.7,573,265.1,573,265.5z"/>
</g>
<path class="st10" d="M588.3,319.7c0,0,31.8,3,34.5-1.9"/>
<path class="st10" d="M649.3,304.3c0,0,17.6-0.6,21.7,5.8"/>
<path class="st0" d="M998,682.2c0,0,5.9,7.8-2.7,19.5s-15.8,21.6-12.9,28.9c0,0,13.1-21.7,23.7-22S1009.7,695.2,998,682.2z"/>
<path class="st10" d="M998,682.2c0.5,0.7,0.9,1.6,1.2,2.4c10.4,12.2,15.9,23.6,5.9,23.9c-9.3,0.3-20.5,16.9-23.1,21.1
	c0.1,0.3,0.2,0.7,0.3,1c0,0,13.1-21.7,23.7-22S1009.7,695.2,998,682.2z"/>
<path class="st0" d="M966.7,682.2c0,0-5.9,7.8,2.7,19.5c8.6,11.7,15.8,21.6,12.9,28.9c0,0-13.1-21.7-23.7-22
	C948,708.3,955,695.2,966.7,682.2z"/>
<path class="st10" d="M966.7,682.2c-0.5,0.7-0.9,1.6-1.2,2.4c-10.4,12.2-15.9,23.6-5.9,23.9c9.3,0.3,20.4,16.9,23.1,21.1
	c-0.1,0.3-0.2,0.7-0.3,1c0,0-13.1-21.7-23.7-22C948.1,708.3,955,695.2,966.7,682.2z"/>
<g>
	<path class="st35" d="M1009,691c0,2.7-0.3,4.9-0.7,4.9s-0.7-2.2-0.7-4.9s0.4-1.4,0.8-1.4S1009,688.3,1009,691z"/>
	<path class="st35" d="M1012.8,694.3c-2.4,1.3-4.5,2.1-4.7,1.8s1.6-1.7,4-3s1.4-0.4,1.6,0S1015.2,693,1012.8,694.3z"/>
	<path class="st35" d="M955.7,691c0,2.7,0.3,4.9,0.7,4.9s0.7-2.2,0.7-4.9s-0.4-1.4-0.8-1.4C955.9,689.6,955.7,688.3,955.7,691z"/>
	<path class="st35" d="M951.9,694.3c2.4,1.3,4.5,2.1,4.7,1.8s-1.6-1.7-4-3s-1.5-0.4-1.6,0S949.5,693,951.9,694.3z"/>
</g>
<ellipse class="st4" cx="982.3" cy="780.3" rx="62" ry="9.5"/>
<path class="st36" d="M1014.3,720.1l-0.3,2.4l-0.4,3.4l-0.2,1.4l-0.4,3.4l-0.2,1.4l-0.4,3.4l-4.7,38.9c-0.4,3.5-6.1,6.2-12.9,6.2
	h-24.7c-6.8,0-12.5-2.7-12.9-6.2l-4.8-38.9l-0.4-3.4l-0.2-1.4l-0.4-3.4l-0.2-1.4l-0.4-3.4l-0.3-2.4c-0.2-2,2.8-3.6,6.7-3.6h50.5
	C1011.4,716.5,1014.5,718.1,1014.3,720.1z"/>
<polygon class="st37" points="1014,722.5 1013.5,725.9 951.1,725.9 950.7,722.5 "/>
<polygon class="st37" points="1013.4,727.3 1013,730.8 951.7,730.8 951.3,727.3 "/>
<polygon class="st37" points="1012.8,732.2 1012.4,735.6 952.3,735.6 951.9,732.2 "/>
</svg>
