<?xml version="1.0" encoding="utf-8"?>
<!-- Generator: Adobe Illustrator 22.0.1, SVG Export Plug-In . SVG Version: 6.00 Build 0)  -->
<svg version="1.1" id="Layer_1" xmlns="http://www.w3.org/2000/svg" xmlns:xlink="http://www.w3.org/1999/xlink" x="0px" y="0px"
	 viewBox="0 0 971.4 502" style="enable-background:new 0 0 971.4 502;" xml:space="preserve">
<style type="text/css">
	.st0{opacity:0.7;fill:url(#SVGID_1_);enable-background:new    ;}
	.st1{fill:#BDBDBD;}
	.st2{opacity:0.1;enable-background:new    ;}
	.st3{fill:#535461;}
	.st4{opacity:0.5;fill:url(#SVGID_2_);enable-background:new    ;}
	.st5{fill:#FFFFFF;}
	.st6{fill:#E0E0E0;}
	.st7{opacity:0.5;fill:#157FB8;enable-background:new    ;}
	.st8{stroke:#E7475E;stroke-width:2;stroke-miterlimit:10;}
	.st9{fill:#E7475E;}
	.st10{fill:none;stroke:#FFFFFF;stroke-miterlimit:10;}
	.st11{stroke:#157FB8;stroke-width:2;stroke-miterlimit:10;}
	.st12{opacity:0.7;fill:url(#SVGID_3_);enable-background:new    ;}
	.st13{opacity:0.6;fill:none;stroke:#535461;stroke-width:3;stroke-miterlimit:10;enable-background:new    ;}
	.st14{fill:#157FB8;}
	.st15{fill:#4DB6AC;}
	.st16{opacity:0.3;fill:none;stroke:#535461;stroke-miterlimit:10;enable-background:new    ;}
	.st17{opacity:0.7;fill:url(#SVGID_4_);enable-background:new    ;}
	.st18{fill:#3AD29F;}
	.st19{fill:#4D8AF0;}
	.st20{fill:#F55F44;}
</style>
<linearGradient id="SVGID_1_" gradientUnits="userSpaceOnUse" x1="599.5" y1="-166.06" x2="599.5" y2="303" gradientTransform="matrix(1 0 0 -1 -114.28 303)">
	<stop  offset="0" style="stop-color:#808080;stop-opacity:0.25"/>
	<stop  offset="0.54" style="stop-color:#808080;stop-opacity:0.12"/>
	<stop  offset="1" style="stop-color:#808080;stop-opacity:0.1"/>
</linearGradient>
<path class="st0" d="M738.4,0H232c-9,0-16.3,7.4-16.3,16.4v348.5c0,9,7.3,16.4,16.3,16.4h174.2v60.2h-7.9c-4.6,0-8.3,3.7-8.3,8.3
	c0,0,0,0,0,0v12.1h16.2v7.1h158.1v-7.1h16.2v-12.1c0-4.6-3.7-8.3-8.3-8.3c0,0,0,0,0,0h-7.5V441h-0.5v-59.6h174.2
	c9,0,16.3-7.4,16.3-16.4V16.4C754.7,7.4,747.4,0,738.4,0z"/>
<path class="st1" d="M407.7,371h156v92h-156L407.7,371z"/>
<path class="st2" d="M410.8,380H561c1.8-7.9,3.3-13,3.3-13h-157C407.2,367,408.8,372.1,410.8,380L410.8,380z"/>
<path class="st3" d="M235.8,3h499.8c8.9,0,16.1,7.2,16.1,16.1V327h-532V19.1C219.7,10.2,226.9,3,235.8,3C235.8,3,235.8,3,235.8,3z"
	/>
<path class="st1" d="M735.6,377H235.8c-8.9,0-16.1-7.2-16.1-16.1l0,0V327h532v33.9C751.7,369.8,744.5,377,735.6,377z"/>
<circle class="st3" cx="485.7" cy="352" r="9"/>
<path class="st1" d="M399.9,436h171.7c4.5,0,8.2,3.7,8.2,8.2V456h-188v-11.8C391.7,439.7,395.4,436,399.9,436L399.9,436L399.9,436z"
	/>
<linearGradient id="SVGID_2_" gradientUnits="userSpaceOnUse" x1="485.72" y1="243.12" x2="485.72" y2="430.88" gradientTransform="matrix(1 0 0 -1 0 502)">
	<stop  offset="0" style="stop-color:#808080;stop-opacity:0.25"/>
	<stop  offset="0.54" style="stop-color:#808080;stop-opacity:0.12"/>
	<stop  offset="1" style="stop-color:#808080;stop-opacity:0.1"/>
</linearGradient>
<path class="st4" d="M325.2,71.1h321c2.5,0,4.5,2,4.5,4.5v178.8c0,2.5-2,4.5-4.5,4.5h-321c-2.5,0-4.5-2-4.5-4.5V75.6
	C320.7,73.1,322.7,71.1,325.2,71.1z"/>
<path class="st5" d="M329.5,72.5H642c2.5,0,4.5,2,4.5,4.5v175c0,2.5-2,4.5-4.5,4.5H329.5c-2.5,0-4.5-2-4.5-4.5V77
	C325,74.5,327,72.5,329.5,72.5z"/>
<path class="st6" d="M462.4,98.9h92.2c1,0,1.8,0.8,1.8,1.8v0c0,1-0.8,1.8-1.8,1.8h-92.2c-1,0-1.8-0.8-1.8-1.8v0
	C460.6,99.7,461.4,98.9,462.4,98.9z"/>
<path class="st6" d="M462.4,109.6h76c1,0,1.8,0.8,1.8,1.8v0c0,1-0.8,1.8-1.8,1.8h-76c-1,0-1.8-0.8-1.8-1.8v0
	C460.6,110.3,461.4,109.6,462.4,109.6z"/>
<path class="st6" d="M462.4,148.5h92.2c1,0,1.8,0.8,1.8,1.8v0c0,1-0.8,1.8-1.8,1.8h-92.2c-1,0-1.8-0.8-1.8-1.8v0
	C460.6,149.3,461.4,148.5,462.4,148.5z"/>
<path class="st6" d="M462.4,159.2h92.2c1,0,1.8,0.8,1.8,1.8v0c0,1-0.8,1.8-1.8,1.8h-92.2c-1,0-1.8-0.8-1.8-1.8v0
	C460.6,160,461.4,159.2,462.4,159.2z"/>
<g>
	<path class="st7" d="M419,98.9h26.4c2.5,0,4.5,2,4.5,4.5v22.9c0,2.5-2,4.5-4.5,4.5H419c-2.5,0-4.5-2-4.5-4.5v-22.9
		C414.5,100.9,416.5,98.9,419,98.9z"/>
	<path class="st7" d="M419,148.5h26.4c2.5,0,4.5,2,4.5,4.5v22.9c0,2.5-2,4.5-4.5,4.5H419c-2.5,0-4.5-2-4.5-4.5V153
		C414.5,150.5,416.5,148.5,419,148.5z"/>
	<path class="st7" d="M419,198.1h26.4c2.5,0,4.5,2,4.5,4.5v22.9c0,2.5-2,4.5-4.5,4.5H419c-2.5,0-4.5-2-4.5-4.5v-22.9
		C414.5,200.2,416.5,198.1,419,198.1z"/>
</g>
<path class="st6" d="M462.4,198.1h92.2c1,0,1.8,0.8,1.8,1.8v0c0,1-0.8,1.8-1.8,1.8h-92.2c-1,0-1.8-0.8-1.8-1.8v0
	C460.6,198.9,461.4,198.1,462.4,198.1z"/>
<path class="st6" d="M462.2,208.8h93.1c0.9,0,1.6,0.7,1.6,1.6v0.4c0,0.9-0.7,1.6-1.6,1.6h-93.1c-0.9,0-1.6-0.7-1.6-1.6v-0.4
	C460.6,209.5,461.3,208.8,462.2,208.8z"/>
<path class="st8" d="M485.7,42V20 M485.7,79V50.1"/>
<circle class="st9" cx="485.7" cy="79" r="4"/>
<circle class="st10" cx="485.7" cy="46" r="4"/>
<path class="st11" d="M485.7,42V20 M485.7,79V50.1"/>
<circle class="st10" cx="485.7" cy="46" r="4"/>
<path class="st11" d="M485.7,279v31 M485.7,251v28.9"/>
<path class="st11" d="M305.7,168.5h-31.5 M333.2,168.5h-28.9"/>
<path class="st2" d="M408.2,435.5h156v3h-156L408.2,435.5z"/>
<linearGradient id="SVGID_3_" gradientUnits="userSpaceOnUse" x1="132.0019" y1="-12.9564" x2="302.99" y2="-12.9564" gradientTransform="matrix(1 0 0 -1 -114.28 303)">
	<stop  offset="0" style="stop-color:#808080;stop-opacity:0.25"/>
	<stop  offset="0.54" style="stop-color:#808080;stop-opacity:0.12"/>
	<stop  offset="1" style="stop-color:#808080;stop-opacity:0.1"/>
</linearGradient>
<path class="st12" d="M179.2,367.1h-72.4l1-8.1c20.5-18.4,33.7-67.3,33.7-67.3c-0.3,0-0.6,0.1-0.9,0.2c-12,2.4-20.5,7.4-26.5,13.3
	l2.5-21.7c37.8-8.1,52.8-58.1,52.8-58.1c-24.1,5.4-39.2,13.6-48.5,21.5l3.7-31.8c25.6,8.8,52-37.8,52-37.8l-1-0.2l0.5-0.3l-0.8,0.3
	c-28.2-6.1-43.4,10.1-48.2,16.8l0.4-3.1c-0.7,2-1.5,4-2.2,5.9v0.1c-2,5.4-3.8,10.8-5.5,16.1c-1.4,4.5-2.8,9-4.1,13.4v-0.1
	c0,0-1.2-28.5-31.2-36c0,0,3.1,62.1,26.9,51.9c-2.2,9-4,17.7-5.6,26.1c-1,5.5-1.9,10.8-2.6,16l-0.1,0.2l0.1-0.1l-0.1,0.4
	c-0.7,4.7-1.2,9.3-1.7,13.8c0.5-8.6-1.1-33.5-30.4-56.9c0,0-39,68.5,27.5,82l0.4,0.4l-0.1-0.3l0.6,0.1l0.3-3.5
	c-0.8,14.7-0.7,29.4,0.2,44.1c0.1,1,0.1,2,0.2,3H27.1c-27.9,57.8,15.5,89.5,15.5,89.5h120C209.2,397.7,179.2,367.1,179.2,367.1
	L179.2,367.1z"/>
<path class="st13" d="M102.7,389c0,0-19-83,23-190"/>
<path class="st14" d="M28.7,364h147c0,0,29,37-16,92h-116C43.7,456,1.7,418,28.7,364z"/>
<path class="st15" d="M123.6,204.5c0,0,14.6-26,49.6-18c0,0-28.9,49.3-55,33.1L123.6,204.5z M114.3,232.1c0,0-1.1-26.6-30.1-33.6
	c0,0,3,58,26,48.5L114.3,232.1z M104.9,271.4c0,0,5.3-27.9,61.4-39.9c0,0-17.9,57.6-63.9,55.3L104.9,271.4z"/>
<path class="st15" d="M100.3,302.6c0,0,5.9-29.1-29.1-56.1c0,0-38,64.7,27.5,76.8L100.3,302.6z"/>
<path class="st15" d="M99.3,342.7c0,0-4.1-41.2,39.9-49.2c0,0-16.1,57.5-40,67.7L99.3,342.7z"/>
<path class="st16" d="M118.7,220c0,0,38-29,54-34 M102.2,286.5c0,0,46-49,64-55 M84.2,198.5c0,0,28,38,26,48 M71.2,246.5
	c0,0,15,68,27,77 M99.2,361.5c0,0,24-66,40-68"/>
<path class="st2" d="M175.7,364h-147c-0.3,0.7-0.6,1.3-1,2h143c0,0,28.3,36.1-14.4,90h3.4C204.7,401,175.7,364,175.7,364z"/>
<path class="st6" d="M0,455.6h971.4v32.9H0V455.6z"/>
<path class="st6" d="M41.2,488.5h889.1V502H41.2V488.5z"/>
<path class="st2" d="M41.2,488.5h889.1v4.5H41.2V488.5z"/>
<path class="st11" d="M690.2,168.5h6 M637.2,168.5h44.9"/>
<g>
	<circle class="st14" cx="485.7" cy="79" r="4"/>
	<circle class="st14" cx="485.7" cy="251" r="4"/>
	<circle class="st14" cx="333.2" cy="168.5" r="4"/>
	<circle class="st14" cx="637.2" cy="168.5" r="4"/>
</g>
<circle class="st10" cx="686.2" cy="168.5" r="4"/>
<linearGradient id="SVGID_4_" gradientUnits="userSpaceOnUse" x1="933" y1="-66.2751" x2="1030.96" y2="-66.2751" gradientTransform="matrix(1 0 0 -1 -114.28 303)">
	<stop  offset="0" style="stop-color:#808080;stop-opacity:0.25"/>
	<stop  offset="0.54" style="stop-color:#808080;stop-opacity:0.12"/>
	<stop  offset="1" style="stop-color:#808080;stop-opacity:0.1"/>
</linearGradient>
<path class="st17" d="M912.7,444.9l0.1-0.2c0.2-0.3,0.4-0.7,0.6-1l0.1-0.2c0.2-0.3,0.4-0.7,0.6-1l0.1-0.2c0.2-0.4,0.4-0.8,0.6-1.2
	c0.4-0.8,0.7-1.7,0.9-2.5l0.1-0.3c0.1-0.3,0.2-0.6,0.3-0.9l0.1-0.4c0.1-0.3,0.1-0.6,0.2-0.8c0-0.2,0.1-0.3,0.1-0.5s0.1-0.6,0.1-0.8
	s0-0.3,0.1-0.5s0.1-0.6,0.1-0.9V349h-13.8v-40.5h-17V349h-11.7v-58.1h-17V349h-6.4v-66.5h-17V349h-15v82.6c0,13.5,11.2,24.4,25,24.4
	h48c8,0,15.5-3.7,20.2-10.1C912.2,445.6,912.5,445.2,912.7,444.9z"/>
<path class="st3" d="M835.7,321h16v100h-16V321z"/>
<path class="st18" d="M835.7,288h16v33h-16V288z"/>
<path class="st3" d="M857.7,329h16v100h-16V329z"/>
<path class="st19" d="M857.7,296h16v33h-16V296z"/>
<path class="st3" d="M884.7,346h16v100h-16V346z"/>
<path class="st20" d="M884.7,313h16v33h-16V313z"/>
<path class="st14" d="M821.7,352h92v79.5c0,13-10.5,23.5-23.5,23.5h-45c-13,0-23.5-10.5-23.5-23.5V352z"/>
<path class="st2" d="M821.7,352v4h88v79.5c0,5.3-1.8,10.4-5,14.5c5.7-4.4,9-11.3,9-18.5V352H821.7z"/>
</svg>
