<?xml version="1.0" encoding="utf-8"?>
<!-- Generator: Adobe Illustrator 22.0.1, SVG Export Plug-In . SVG Version: 6.00 Build 0)  -->
<svg version="1.1" id="Layer_1" xmlns="http://www.w3.org/2000/svg" xmlns:xlink="http://www.w3.org/1999/xlink" x="0px" y="0px"
	 viewBox="0 0 157.2 51.3" style="enable-background:new 0 0 157.2 51.3;" xml:space="preserve">
<style type="text/css">
	.st0{fill:url(#SVGID_1_);}
	.st1{fill:url(#SVGID_2_);}
	.st2{fill:url(#SVGID_3_);}
	.st3{fill:#F9F9F9;}
	.st4{font-family:'Roboto-Medium';}
	.st5{font-size:27px;}
</style>
<g transform="translate(4.362 -31.343)">
	
		<linearGradient id="SVGID_1_" gradientUnits="userSpaceOnUse" x1="-176.4926" y1="-356.4296" x2="-175.4926" y2="-356.4296" gradientTransform="matrix(40.649 0 0 24.417 7174.2495 8773.3418)">
		<stop  offset="7.000001e-03" style="stop-color:#3CB5FB"/>
		<stop  offset="1" style="stop-color:#0071FF"/>
	</linearGradient>
	<path class="st0" d="M40.6,70.6L18.5,58.2L0,69.3l20.6,13.3C20.6,82.6,40.6,70.6,40.6,70.6z"/>
	
		<linearGradient id="SVGID_2_" gradientUnits="userSpaceOnUse" x1="-175.2583" y1="-355.1385" x2="-176.1933" y2="-356.8045" gradientTransform="matrix(40.649 0 0 24.417 7174.2495 8773.3418)">
		<stop  offset="0" style="stop-color:#E2E1E6"/>
		<stop  offset="0.425" style="stop-color:#FFFFFF"/>
		<stop  offset="1" style="stop-color:#E2E1E6"/>
	</linearGradient>
	<path class="st1" d="M40.6,70.6L18.5,58.2L0,69.3l20.6,13.3C20.6,82.6,40.6,70.6,40.6,70.6z"/>
	<g transform="translate(-4.36 31.34)">
		
			<linearGradient id="SVGID_3_" gradientUnits="userSpaceOnUse" x1="-167.6797" y1="-361.121" x2="-166.6791" y2="-361.121" gradientTransform="matrix(39.775 0 0 35.453 6673.96 12823.0215)">
			<stop  offset="0" style="stop-color:#00FDFA"/>
			<stop  offset="0" style="stop-color:#E2E1E6"/>
			<stop  offset="1" style="stop-color:#FFFFFF"/>
		</linearGradient>
		<path class="st2" d="M44.3,14.1L25.1,2.5L4.5,15.9v22C4.5,37.9,44.3,14.1,44.3,14.1z"/>
	</g>
</g>
<text transform="matrix(1 0 0 1 50.8166 35.6459)" class="st3 st4 st5">Halnode</text>
</svg>
