<?xml version="1.0" encoding="utf-8"?>
<!-- Generator: Adobe Illustrator 22.0.1, SVG Export Plug-In . SVG Version: 6.00 Build 0)  -->
<svg version="1.1" id="monitor" xmlns="http://www.w3.org/2000/svg" xmlns:xlink="http://www.w3.org/1999/xlink" x="0px" y="0px"
	 viewBox="0 0 52.3 52.3" style="enable-background:new 0 0 52.3 52.3;" xml:space="preserve">
<style type="text/css">
	.st0{fill:#157FB8;}
	.st1{fill:#322153;}
</style>
<path id="Path_306" class="st0" d="M10.9,48.3c0,2,0.9,3.6,2.1,3.6h24.9c1.1,0,2.1-1.6,2.1-3.6v-7.2h-29V48.3z"/>
<path class="st1" d="M37.4,1h-24c-1.4,0-2.5,2.4-2.5,5.2V45c0,3,1.1,5.3,2.4,5.3h7.3l0,0.1c0.2,0,0.4,0,0.6,0c0.2,0,0.3,0,0.5,0
	l0-0.1H29l0,0.1c0.2,0,0.4-0.1,0.7-0.1c0.2,0,0.3,0,0.5,0l0-0.1h7.2c1.4,0,2.5-2.4,2.5-5.2V6.3C39.9,3.4,38.8,1,37.4,1z M38.9,35.2
	H13.4c-0.3,0-0.5,0.5-0.5,1.1s0.2,1.1,0.5,1.1h25.5V45c0,1.8-0.6,3.2-1.4,3.2H13.4c-0.8,0-1.5-1.3-1.5-3.1V6.3
	c0-1.8,0.6-3.2,1.4-3.2h24.1c0.8,0,1.5,1.3,1.5,3.1V35.2z M39,37.3c0-1,0-1,0-2C39,36.3,39,36.3,39,37.3z"/>
<path id="Path_308" class="st1" d="M24.3,42.3c-1.5,0-2.7,1.2-2.7,2.7s1.2,2.7,2.7,2.7S27,46.5,27,45l0,0
	C27,43.5,25.8,42.3,24.3,42.3L24.3,42.3z M24.3,45.9c-0.5,0-0.9-0.4-0.9-0.9s0.4-0.9,0.9-0.9s0.9,0.4,0.9,0.9l0,0
	C25.2,45.4,24.8,45.8,24.3,45.9L24.3,45.9z"/>
<path id="Path_309" class="st1" d="M13.5,13.6c0.2,0,0.5-0.1,0.6-0.3l7.2-7.2c0.3-0.4,0.3-0.9,0-1.3c-0.3-0.3-0.9-0.3-1.2,0L12.9,12
	c-0.3,0.3-0.4,0.9,0,1.2l0,0C13,13.5,13.3,13.6,13.5,13.6z"/>
<path id="Path_310" class="st1" d="M13.5,10c0.2,0,0.5-0.1,0.6-0.3l3.6-3.6c0.3-0.4,0.3-0.9,0-1.3c-0.3-0.3-0.9-0.3-1.2,0l-3.6,3.7
	c-0.3,0.3-0.4,0.9,0,1.2l0,0C13,9.9,13.3,10,13.5,10z"/>
</svg>
