<?xml version="1.0" encoding="utf-8"?>
<!-- Generator: Adobe Illustrator 22.0.1, SVG Export Plug-In . SVG Version: 6.00 Build 0)  -->
<svg version="1.1" id="monitor" xmlns="http://www.w3.org/2000/svg" xmlns:xlink="http://www.w3.org/1999/xlink" x="0px" y="0px"
	 viewBox="0 0 52.3 52.3" style="enable-background:new 0 0 52.3 52.3;" xml:space="preserve">
<style type="text/css">
	.st0{fill:#157FB8;}
	.st1{fill:#322153;}
</style>
<path id="Path_306" class="st0" d="M0.9,40.6c0,2,1.6,3.6,3.6,3.6h43.3c2,0,3.6-1.6,3.6-3.6v-7.2H0.9V40.6z"/>
<g id="Group_148">
	<path id="Path_307" class="st1" d="M47.8,0H4.5C2,0,0,2,0,4.4c0,0,0,0.1,0,0.1V37c0,2.5,2,4.5,4.4,4.5c0,0,0.1,0,0.1,0h13l-2.7,5.4
		h-1.3c-1.5,0-2.7,1.1-2.7,2.6c0,0,0,0.1,0,0.1c0,0.7,0.3,1.4,0.8,1.9c0.5,0.5,1.2,0.8,1.9,0.8h25.3c1.5,0,2.7-1.1,2.7-2.6
		c0,0,0-0.1,0-0.1c0-1.5-1.2-2.7-2.7-2.7h-1.3l-2.7-5.4h13c2.5,0,4.5-2,4.5-4.4c0,0,0-0.1,0-0.1V4.5C52.3,2,50.3,0,47.8,0
		C47.9,0,47.8,0,47.8,0z M35.5,46.9H18.9c-0.5,0-0.9,0.4-0.9,0.9c0,0.5,0.4,0.9,0.9,0.9h19.8c0.5,0,0.9,0.4,0.9,0.9
		c0,0.5-0.3,0.9-0.8,0.9c0,0-0.1,0-0.1,0H13.5c-0.5,0-0.9-0.4-0.9-0.9c0-0.5,0.3-0.9,0.8-0.9c0,0,0.1,0,0.1,0h1.8
		c0.4,0,0.7-0.2,0.8-0.5l1.5-3.1h4.9c0.5,0,0.9-0.4,0.9-0.9c0-0.5-0.4-0.9-0.9-0.9c0,0,0,0,0,0h-4l0.9-1.8h13.3L35.5,46.9z
		 M47.8,39.7H4.5c-1.5,0-2.7-1.1-2.7-2.6c0,0,0-0.1,0-0.1V4.5c0-1.5,1.1-2.7,2.6-2.7c0,0,0.1,0,0.1,0h43.3c1.5,0,2.7,1.1,2.7,2.6
		c0,0,0,0.1,0,0.1v24.3h-46c-0.5,0-0.9,0.4-0.9,0.9c0,0.5,0.4,0.9,0.9,0.9c0,0,0,0,0,0h46V37c0,1.5-1.1,2.7-2.6,2.7
		C47.9,39.7,47.8,39.7,47.8,39.7L47.8,39.7z"/>
	<path id="Path_308" class="st1" d="M26.2,32.5c-1.5,0-2.7,1.2-2.7,2.7c0,1.5,1.2,2.7,2.7,2.7s2.7-1.2,2.7-2.7l0,0
		C28.9,33.7,27.7,32.5,26.2,32.5C26.2,32.5,26.2,32.5,26.2,32.5z M26.2,36.1c-0.5,0-0.9-0.4-0.9-0.9s0.4-0.9,0.9-0.9
		c0.5,0,0.9,0.4,0.9,0.9l0,0C27.1,35.6,26.7,36,26.2,36.1C26.2,36.1,26.2,36.1,26.2,36.1z"/>
	<path id="Path_309" class="st1" d="M4.5,12.6c0.2,0,0.5-0.1,0.6-0.3l7.2-7.2c0.3-0.4,0.3-0.9,0-1.3c-0.3-0.3-0.9-0.3-1.2,0
		l-7.2,7.2c-0.3,0.3-0.4,0.9,0,1.2c0,0,0,0,0,0C4,12.5,4.3,12.6,4.5,12.6z"/>
	<path id="Path_310" class="st1" d="M4.5,9C4.7,9,5,8.9,5.1,8.7l3.6-3.6c0.3-0.4,0.3-0.9,0-1.3c-0.3-0.3-0.9-0.3-1.2,0L3.9,7.5
		c-0.3,0.3-0.4,0.9,0,1.2c0,0,0,0,0,0C4,8.9,4.3,9,4.5,9z"/>
	<path id="Path_311" class="st1" d="M11.1,7.5l-3.6,3.6c-0.3,0.3-0.4,0.9,0,1.2c0,0,0,0,0,0c0.3,0.3,0.9,0.4,1.2,0c0,0,0,0,0,0
		l3.6-3.6c0.3-0.4,0.3-0.9,0-1.3C12,7.2,11.4,7.2,11.1,7.5z"/>
	<path id="Path_312" class="st1" d="M47.8,32.5c-0.5,0-0.9,0.3-0.9,0.8c0,0,0,0.1,0,0.1c0.1,1.4-1,2.6-2.5,2.7c-0.1,0-0.2,0-0.3,0
		c-0.5,0-0.9,0.4-0.9,0.9c0,0.5,0.3,0.9,0.8,0.9c0,0,0.1,0,0.1,0c2.4,0.1,4.4-1.8,4.5-4.2c0-0.1,0-0.2,0-0.4
		C48.7,32.9,48.4,32.5,47.8,32.5C47.9,32.5,47.8,32.5,47.8,32.5L47.8,32.5z"/>
</g>
</svg>
