<?xml version="1.0" encoding="utf-8"?>
<!-- Generator: Adobe Illustrator 22.0.1, SVG Export Plug-In . SVG Version: 6.00 Build 0)  -->
<svg version="1.1" id="Layer_1" xmlns="http://www.w3.org/2000/svg" xmlns:xlink="http://www.w3.org/1999/xlink" x="0px" y="0px"
	 viewBox="0 0 400 432" style="enable-background:new 0 0 400 432;" xml:space="preserve">
<style type="text/css">
	.st0{fill:#157FB8;}
	.st1{fill:#322153;}
</style>
<path id="Path_373" class="st0" d="M328,72c0-17.7-14.3-32-32-32c0,0,0,0,0,0H104c-17.7,0-32,14.3-32,32c0,0,0,0,0,0v202.7L200,360
	l128-85.3V72z"/>
<g id="Group_157">
	<path id="Path_374" class="st1" d="M296,0H104C81.9,0,64,17.9,64,40v113.1L3.6,193.3c-0.3,0.2-0.6,0.5-0.9,0.8
		c-0.1,0.1-0.3,0.2-0.4,0.3c-0.6,0.6-1.1,1.4-1.5,2.2c-0.1,0.2-0.1,0.4-0.2,0.6C0.2,198.1,0,199,0,200v224c0,4.4,3.6,8,8,8h384
		c4.4,0,8-3.6,8-8V200c0-1-0.2-1.9-0.6-2.8c-0.1-0.2-0.1-0.4-0.2-0.6c-0.4-0.8-0.9-1.5-1.5-2.2c-0.1-0.1-0.3-0.2-0.4-0.3
		c-0.3-0.3-0.6-0.6-0.9-0.8L336,153.1V40C336,17.9,318.1,0,296,0z M384,404.7L270.2,290.8L384,214.9V404.7z M16,214.9l113.8,75.9
		L16,404.7V214.9z M141.7,301.7c0.6-0.6,1-1.3,1.4-2l52.6,35c2.7,1.8,6.2,1.8,8.9,0l52.6-35c0.3,0.7,0.8,1.4,1.4,2L372.7,416H27.3
		L141.7,301.7z M80,40c0-13.2,10.8-24,24-24h192c13.2,0,24,10.8,24,24v198.4l-120,80l-120-80V40z M64,172.3v55.4L22.4,200L64,172.3z
		 M377.6,200L336,227.7v-55.4L377.6,200z"/>
	<path id="Path_375" class="st1" d="M168,80h64c4.4,0,8-3.6,8-8s-3.6-8-8-8h-64c-4.4,0-8,3.6-8,8S163.6,80,168,80z"/>
	<path id="Path_376" class="st1" d="M104,144h192c4.4,0,8-3.6,8-8s-3.6-8-8-8H104c-4.4,0-8,3.6-8,8S99.6,144,104,144z"/>
	<path id="Path_377" class="st1" d="M104,176h192c4.4,0,8-3.6,8-8s-3.6-8-8-8H104c-4.4,0-8,3.6-8,8S99.6,176,104,176z"/>
	<path id="Path_378" class="st1" d="M304,200c0-4.4-3.6-8-8-8c0,0,0,0,0,0H104c-4.4,0-8,3.6-8,8s3.6,8,8,8h192
		C300.4,208,304,204.4,304,200C304,200,304,200,304,200z"/>
</g>
</svg>
