<?xml version="1.0" encoding="utf-8"?>
<!-- Generator: Adobe Illustrator 22.0.1, SVG Export Plug-In . SVG Version: 6.00 Build 0)  -->
<svg version="1.1" id="Layer_1" xmlns="http://www.w3.org/2000/svg" xmlns:xlink="http://www.w3.org/1999/xlink" x="0px" y="0px"
	 viewBox="0 0 63.3 61.2" style="enable-background:new 0 0 63.3 61.2;" xml:space="preserve">
<style type="text/css">
	.st0{fill:#157FB8;}
	.st1{fill:#322153;}
</style>
<path id="Path_331" class="st0" d="M45.3,7L22.8,29.5l13.1,13.1l23.2-23.2c1.7-1.7,1.8-4.4,0.1-6.2c0,0,0,0-0.1-0.1l-6.3-6.3
	C50.7,4.9,47.4,5,45.3,7z"/>
<g id="Group_152" transform="translate(0 7.5)">
	<path id="Path_332" class="st1" d="M59.9,0.7l-6.3-6.3c-2.4-2.5-6.4-2.5-8.9-0.1c0,0-0.1,0.1-0.1,0.1L22.1,16.9V17l-0.2,0.2v0.1
		c0,0.1-0.1,0.2-0.1,0.3v2.5c0,0.9-0.3,1.7-1,2.3L4.6,38.7c-0.1,0.1-0.2,0.3-0.2,0.4L0,52.3v0.3c0,0.1,0,0.2,0.1,0.3v0.1
		c0,0.1,0.1,0.2,0.2,0.3s0.2,0.2,0.3,0.2c0,0.1,0.2,0.1,0.3,0.1h26.2c0.6,0,1.1-0.5,1.1-1.1s-0.5-1.1-1.1-1.1l0,0H7.8l6.8-2.3
		c0.2,0,0.3-0.1,0.4-0.2l16.2-16.2c0.6-0.6,1.4-1,2.3-1h2.5c0.2,0,0.3,0,0.4-0.1c0.1-0.1,0.2-0.1,0.3-0.2L59.9,8.4
		c0.5-0.5,0.9-1.2,1.2-1.9v0.2c0,1.1-0.4,2.2-1.2,3l-16,16c-0.4,0.4-0.4,1.1,0,1.5c0,0,0,0,0,0c0.4,0.4,1.1,0.4,1.5,0c0,0,0,0,0,0
		l16-16c2.5-2.5,2.5-6.5,0-9c0,0,0,0,0,0L59.9,0.7z M5.8,41.6l6.2,6.2L2.6,51L5.8,41.6z M58.3,6.8L35.5,29.7h-2.1
		c-1.4,0-2.8,0.6-3.8,1.6L14.1,46.7l-7.2-7.2l15.4-15.4c1-1,1.6-2.4,1.6-3.8l6.9,6.9c0.4,0.4,1.1,0.4,1.5,0s0.4-1.1,0-1.5l-8-8
		L46.1-4.1c1.6-1.6,4.2-1.6,5.9,0c0,0,0,0,0,0l6.3,6.3C59.5,3.5,59.5,5.5,58.3,6.8z"/>
	<path id="Path_333" class="st1" d="M22.1,25.6L9,38.7c-0.4,0.4-0.4,1.1,0,1.5c0,0,0,0,0,0c0.4,0.4,1.1,0.4,1.5,0c0,0,0,0,0,0
		l13.1-13.1c0.4-0.4,0.4-1.1,0-1.5C23.2,25.2,22.5,25.2,22.1,25.6L22.1,25.6z"/>
	<path id="Path_334" class="st1" d="M48.3-0.6l-8.7,8.7c-0.4,0.4-0.4,1.1,0,1.5c0,0,0,0,0,0c0.4,0.4,1.1,0.4,1.5,0c0,0,0,0,0,0
		l8.7-8.7c0.4-0.4,0.4-1.1,0-1.5S48.7-1,48.3-0.6z"/>
	<path id="Path_335" class="st1" d="M40.3,5.6c0.3,0,0.6-0.1,0.8-0.3l4.4-4.4c0.4-0.4,0.4-1.1,0-1.5s-1.1-0.4-1.5,0l-4.4,4.4
		c-0.4,0.4-0.4,1.1,0,1.5c0,0,0,0,0,0C39.7,5.5,40,5.6,40.3,5.6L40.3,5.6z"/>
	<path id="Path_336" class="st1" d="M48.3,3.8l-4.4,4.4c-0.4,0.4-0.4,1.1,0,1.5c0,0,0,0,0,0c0.4,0.4,1.1,0.4,1.5,0c0,0,0,0,0,0
		l4.4-4.4c0.4-0.4,0.4-1.1,0-1.5C49.4,3.4,48.7,3.4,48.3,3.8z"/>
	<path id="Path_337" class="st1" d="M31.6,53.7h17.5c0.6,0,1.1-0.5,1.1-1.1s-0.5-1.1-1.1-1.1l0,0H31.6c-0.6,0-1.1,0.5-1.1,1.1
		S31,53.7,31.6,53.7z"/>
	<path id="Path_338" class="st1" d="M57.8,53.7c0.6,0,1.1-0.5,1.1-1.1s-0.5-1.1-1.1-1.1h-4.4c-0.6,0-1.1,0.5-1.1,1.1
		s0.5,1.1,1.1,1.1l0,0H57.8z"/>
</g>
</svg>
