<?xml version="1.0" encoding="utf-8"?>
<!-- Generator: Adobe Illustrator 22.0.1, SVG Export Plug-In . SVG Version: 6.00 Build 0)  -->
<svg version="1.1" id="Layer_1" xmlns="http://www.w3.org/2000/svg" xmlns:xlink="http://www.w3.org/1999/xlink" x="0px" y="0px"
	 viewBox="0 0 281.5 410" style="enable-background:new 0 0 281.5 410;" xml:space="preserve">
<style type="text/css">
	.st0{fill:#157FB8;}
	.st1{fill:#322153;}
</style>
<path id="Path_379" class="st0" d="M140.8,410c53.9,0,134.6-168,134.6-242.4c0.2-74.4-59.9-134.8-134.3-135
	C66.8,32.5,6.3,92.6,6.1,167c0,0.2,0,0.5,0,0.7C6.1,242.1,86.9,410,140.8,410z M140.8,86.9c44.6,0,80.8,36.2,80.8,80.8
	s-36.2,80.8-80.8,80.8S60,212.3,60,167.7C60,123.1,96.1,86.9,140.8,86.9L140.8,86.9z"/>
<g id="Group_158" transform="translate(76.364)">
	<path id="Path_380" class="st1" d="M64.4,227.7c48,0,86.9-38.9,86.9-86.9c0-48-38.9-86.9-86.9-86.9s-86.9,38.9-86.9,86.9l0,0
		C-22.4,188.7,16.4,227.6,64.4,227.7L64.4,227.7z M64.4,66.1c41.2,0,74.7,33.4,74.7,74.7c0,41.2-33.4,74.7-74.7,74.7
		s-74.7-33.4-74.7-74.7c0,0,0,0,0,0C-10.2,99.5,23.2,66.1,64.4,66.1z"/>
	<path id="Path_381" class="st1" d="M64.4,389.2c59,0,140.8-172.5,140.8-248.5C205.2,63.1,142,0,64.4,0S-76.4,63.1-76.4,140.8
		C-76.4,216.7,5.4,389.2,64.4,389.2z M64.4,12.2c70.9,0.1,128.4,57.6,128.5,128.5C192.9,216,112.2,377,64.4,377
		S-64.1,216-64.1,140.8C-64,69.8-6.5,12.3,64.4,12.2L64.4,12.2z"/>
	<path id="Path_382" class="st1" d="M64.4,350.1c-18.2,0-55-60.9-75.2-104.2c-1.4-3.1-5.1-4.4-8.1-2.9c-3.1,1.4-4.4,5.1-2.9,8.1
		c8.7,18.6,53.8,111.2,86.3,111.2c3.4,0,6.1-2.7,6.1-6.1S67.8,350.1,64.4,350.1L64.4,350.1z"/>
	<path id="Path_383" class="st1" d="M64.4,39.2c56.1,0.1,101.5,45.5,101.6,101.6c0,3.4,2.7,6.1,6.1,6.1s6.1-2.7,6.1-6.1
		C178.2,77.9,127.2,27,64.4,26.9c-3.4,0-6.1,2.7-6.1,6.1S61,39.2,64.4,39.2L64.4,39.2z"/>
</g>
</svg>
