<?xml version="1.0" encoding="utf-8"?>
<!-- Generator: Adobe Illustrator 22.0.1, SVG Export Plug-In . SVG Version: 6.00 Build 0)  -->
<svg version="1.1" id="Layer_1" xmlns="http://www.w3.org/2000/svg" xmlns:xlink="http://www.w3.org/1999/xlink" x="0px" y="0px"
	 viewBox="0 0 59.3 59.4" style="enable-background:new 0 0 59.3 59.4;" xml:space="preserve">
<style type="text/css">
	.st0{fill:#157FB8;}
	.st1{fill:#322153;}
</style>
<circle id="Ellipse_22" class="st0" cx="29.6" cy="33.8" r="16.4"/>
<g id="Group_149" transform="translate(.177)">
	<path id="Path_313" class="st1" d="M47.5,47.8C47.6,47.8,47.6,47.7,47.5,47.8c10-9.9,10.1-26,0.2-36c0,0-0.1-0.1-0.1-0.1v-0.1
		c0-0.1,0,0-0.1,0c-4.8-4.8-11.3-7.5-18-7.5c-5.1,0-10.1,1.5-14.3,4.4c-0.5,0.3-0.6,1-0.3,1.4c0.3,0.5,1,0.6,1.4,0.3
		c3.6-2.5,7.8-3.9,12.2-4.1v3.1c0,0.5,0.4,1,0.9,1c0,0,0.1,0,0.1,0c10.7,0,19.4,8.7,19.4,19.4c0,0,0,0,0,0c0,0.5,0.4,1,0.9,1
		c0,0,0.1,0,0.1,0H53c-0.2,5.5-2.4,10.8-6.1,14.8l-2.1-2.1c-0.4-0.4-1-0.4-1.4,0s-0.4,1,0,1.4l2.1,2.1c-4.1,3.7-9.3,5.9-14.8,6.1V50
		c0-0.6-0.5-1-1-1c-0.6,0-1,0.5-1,1v3.1C23,52.9,17.8,50.7,13.7,47l2.1-2.1c0.4-0.4,0.3-1.1-0.1-1.4c-0.4-0.3-0.9-0.3-1.3,0
		l-2.1,2.1c-3.7-4.1-5.9-9.3-6.1-14.8h3.1c0.6,0,1-0.5,1-1c0-0.6-0.5-1-1-1H5.9c0.2-4.3,1.5-8.4,3.9-12c0.3-0.5,0.2-1.1-0.3-1.4
		c-0.5-0.3-1.1-0.2-1.4,0.3c-2.8,4.2-4.2,9.1-4.2,14.1c0,6.8,2.7,13.2,7.5,18v0.1c0,0.1,0,0,0.1,0C21.4,57.7,37.5,57.8,47.5,47.8
		C47.4,47.8,47.5,47.8,47.5,47.8L47.5,47.8z M43.9,13.8c-3.7-3.4-8.4-5.3-13.4-5.5V6.1c5.5,0.2,10.8,2.4,14.8,6.1L43.9,13.8z
		 M45.3,15.3l1.4-1.4c3.7,4.1,5.9,9.3,6.1,14.8h-2C50.6,23.7,48.7,18.9,45.3,15.3z"/>
	<path id="Path_314" class="st1" d="M4.5,0.1C4.1,0.2,3.8,0.6,3.9,1v3.1H0.8C0.4,4.1,0,4.3-0.1,4.7c-0.1,0.4-0.1,0.8,0.2,1.1
		l4.1,4.1c0.2,0.2,0.4,0.3,0.7,0.3h3.7L27,28.7h-1.6c-0.6,0-1,0.5-1,1s0.5,1,1,1l0,0h4.1c0.1,0,0.2,0,0.3-0.1h0.1
		c0.1,0,0.1-0.1,0.2-0.1c0.1,0,0.1,0,0.1-0.1l0,0c0.1-0.1,0.1-0.2,0.2-0.3c0-0.1,0.1-0.2,0.1-0.3v-4.1c0-0.6-0.5-1-1-1s-1,0.5-1,1
		l0,0v1.6L10,8.9V5.1c0-0.3-0.1-0.5-0.3-0.7L5.6,0.3C5.3,0,4.9-0.1,4.5,0.1z M5.3,8.2l-2-2h1.2l2,2L5.3,8.2z M5.9,3.5l2,2v1.2l-2-2
		L5.9,3.5z"/>
	<path id="Path_315" class="st1" d="M15.6,20.9c-0.5-0.3-1.1-0.1-1.4,0.4c0,0,0,0,0,0c-1.4,2.6-2.2,5.5-2.1,8.4
		c0,9.6,7.8,17.4,17.4,17.4s17.4-7.8,17.4-17.4s-7.8-17.4-17.4-17.4c-2.9,0-5.8,0.7-8.4,2.1c-0.5,0.3-0.7,0.9-0.4,1.4
		c0.3,0.5,0.9,0.7,1.4,0.4c2.3-1.3,4.9-1.9,7.5-1.9c8.5,0,15.3,6.9,15.3,15.4C44.9,38.2,38,45,29.5,45c-8.5,0-15.3-6.9-15.3-15.3
		c0-2.6,0.6-5.2,1.9-7.5C16.3,21.7,16.1,21.2,15.6,20.9z"/>
	<circle id="Ellipse_23" class="st1" cx="29.5" cy="17.4" r="1"/>
	<circle id="Ellipse_24" class="st1" cx="29.5" cy="42" r="1"/>
	<circle id="Ellipse_25" class="st1" cx="17.2" cy="29.7" r="1"/>
	<circle id="Ellipse_26" class="st1" cx="41.7" cy="29.7" r="1"/>
	<circle id="Ellipse_27" class="st1" cx="38.2" cy="38.4" r="1"/>
	<circle id="Ellipse_28" class="st1" cx="20.8" cy="38.4" r="1"/>
	<circle id="Ellipse_29" class="st1" cx="38.1" cy="21" r="1"/>
	<path id="Path_316" class="st1" d="M58.1,28.7c-0.5,0-1,0.4-1,0.9c0,0,0,0.1,0,0.1c0,15.3-12.4,27.6-27.6,27.6c-0.6,0-1,0.5-1,1
		s0.5,1,1,1c16.4,0,29.7-13.3,29.7-29.7c0-0.5-0.4-1-0.9-1C58.2,28.7,58.2,28.7,58.1,28.7z"/>
</g>
</svg>
